<svg xmlns="http://www.w3.org/2000/svg" xmlns:xlink="http://www.w3.org/1999/xlink" viewBox="13997.5 12964.576 359.895 212.115">
  <defs>
    <style>
      .cls-1, .cls-15, .cls-8, .cls-9 {
        fill: #fff;
      }

      .cls-14, .cls-2, .cls-5, .cls-6 {
        fill: #242539;
      }

      .cls-2, .cls-6, .cls-8 {
        font-size: 8px;
      }

      .cls-13, .cls-14, .cls-2, .cls-8, .cls-9 {
        font-family: SegoeUI-Bold, Segoe UI;
        font-weight: 700;
      }

      .cls-3 {
        opacity: 0.8;
      }

      .cls-12, .cls-4 {
        fill: #e8e9ec;
      }

      .cls-6 {
        font-family: SegoeUI-Semibold, Segoe UI;
        font-weight: 600;
      }

      .cls-7 {
        fill: #ffb303;
      }

      .cls-9 {
        font-size: 15px;
      }

      .cls-10, .cls-11 {
        fill: none;
      }

      .cls-10 {
        stroke: #e9e9f0;
      }

      .cls-13 {
        fill: #242538;
      }

      .cls-13, .cls-14 {
        font-size: 9px;
      }

      .cls-14 {
        opacity: 0.5;
      }

      .cls-16, .cls-17 {
        stroke: none;
      }

      .cls-17 {
        fill: #e9e9f0;
      }

      .cls-18 {
        filter: url(#BG-2);
      }

      .cls-19 {
        filter: url(#BG);
      }
    </style>
    <filter id="BG" x="13997.5" y="12964.576" width="359.895" height="212.115" filterUnits="userSpaceOnUse">
      <feOffset dy="3" input="SourceAlpha"/>
      <feGaussianBlur stdDeviation="7.5" result="blur"/>
      <feFlood flood-opacity="0.039"/>
      <feComposite operator="in" in2="blur"/>
      <feComposite in="SourceGraphic"/>
    </filter>
    <filter id="BG-2" x="14017" y="13067" width="319.224" height="84.417" filterUnits="userSpaceOnUse">
      <feOffset dy="2" input="SourceAlpha"/>
      <feGaussianBlur stdDeviation="3" result="blur-2"/>
      <feFlood flood-opacity="0.039"/>
      <feComposite operator="in" in2="blur-2"/>
      <feComposite in="SourceGraphic"/>
    </filter>
  </defs>
  <g id="Group_1785" data-name="Group 1785" transform="translate(12923 12103)">
    <g class="cls-19" transform="matrix(1, 0, 0, 1, -12923, -12103)">
      <g id="BG-3" data-name="BG" class="cls-1" transform="translate(14020 12984.08)">
        <path class="cls-16" d="M 314.3949279785156 166.6152954101563 L 0.5000024437904358 166.6152954101563 L 0.5000024437904358 0.4999938607215881 L 314.3949279785156 0.4999938607215881 L 314.3949279785156 166.6152954101563 Z"/>
        <path class="cls-17" d="M 313.8949279785156 166.1153106689453 L 313.8949279785156 1.000022649765015 L 1.000005602836609 1.000022649765015 L 1.000005602836609 166.1153106689453 L 313.8949279785156 166.1153106689453 M 314.8949279785156 167.1153106689453 L 5.655924724123906e-06 167.1153106689453 L 5.655924724123906e-06 2.270507866342086e-05 L 314.8949279785156 2.270507866342086e-05 L 314.8949279785156 167.1153106689453 Z"/>
      </g>
    </g>
    <text id="CUSTOMER_REVIEWS" data-name="CUSTOMER REVIEWS" class="cls-2" transform="translate(1103.568 905.935)"><tspan x="0" y="0">CUSTOMER REVIEWS</tspan></text>
    <g id="Group_1667" data-name="Group 1667" class="cls-3" transform="translate(0 191.448)">
      <g class="cls-18" transform="matrix(1, 0, 0, 1, -12923, -12294.45)">
        <path id="BG-4" data-name="BG" class="cls-4" d="M0,0H301.224V66.417H0Z" transform="translate(14026 13074)"/>
      </g>
      <text id="CUSTOMER_REVIEWS-2" data-name="CUSTOMER REVIEWS" class="cls-2" transform="translate(1119.569 795.935)"><tspan x="0" y="0">CUSTOMER REVIEWS</tspan></text>
      <rect id="HTB1XMTgXgvGK1Jjy0Fbq6z4vVXaf" class="cls-5" width="31.245" height="31.245" rx="5" transform="translate(1119 804)"/>
      <g id="Group_1664" data-name="Group 1664" transform="translate(1158.336 810)">
        <text id="Base_on_reviews" data-name="Base on reviews" class="cls-6" transform="translate(0 17.695)"><tspan x="0" y="0">Base on reviews</tspan></text>
        <g id="Group_1163" data-name="Group 1163" transform="translate(0 0)">
          <path id="Path_362" data-name="Path 362" class="cls-7" d="M9.026,3.983a.544.544,0,0,0-.268-.919L6.23,2.681h0L5.158.345a.56.56,0,0,0-1.034,0L2.975,2.681h0L.409,3.064a.544.544,0,0,0-.268.919L1.979,5.9v.038L1.558,8.5a.594.594,0,0,0,.843.651L4.545,7.928h.038L6.728,9.116a.594.594,0,0,0,.843-.651L7.15,5.9V5.86Z" transform="translate(0.021 0)"/>
          <path id="Path_362-2" data-name="Path 362" class="cls-7" d="M9.026,3.983a.544.544,0,0,0-.268-.919L6.23,2.681h0L5.158.345a.56.56,0,0,0-1.034,0L2.975,2.681h0L.409,3.064a.544.544,0,0,0-.268.919L1.979,5.9v.038L1.558,8.5a.594.594,0,0,0,.843.651L4.545,7.928h.038L6.728,9.116a.594.594,0,0,0,.843-.651L7.15,5.9V5.86Z" transform="translate(14.294 0)"/>
          <path id="Path_362-3" data-name="Path 362" class="cls-7" d="M9.026,3.983a.544.544,0,0,0-.268-.919L6.23,2.681h0L5.158.345a.56.56,0,0,0-1.034,0L2.975,2.681h0L.409,3.064a.544.544,0,0,0-.268.919L1.979,5.9v.038L1.558,8.5a.594.594,0,0,0,.843.651L4.545,7.928h.038L6.728,9.116a.594.594,0,0,0,.843-.651L7.15,5.9V5.86Z" transform="translate(28.567 0)"/>
          <path id="Path_362-4" data-name="Path 362" class="cls-7" d="M9.026,3.983a.544.544,0,0,0-.268-.919L6.23,2.681h0L5.158.345a.56.56,0,0,0-1.034,0L2.975,2.681h0L.409,3.064a.544.544,0,0,0-.268.919L1.979,5.9v.038L1.558,8.5a.594.594,0,0,0,.843.651L4.545,7.928h.038L6.728,9.116a.594.594,0,0,0,.843-.651L7.15,5.9V5.86Z" transform="translate(43.3 0)"/>
          <path id="Path_362-5" data-name="Path 362" class="cls-7" d="M9.026,3.983a.544.544,0,0,0-.268-.919L6.23,2.681h0L5.158.345a.56.56,0,0,0-1.034,0L2.975,2.681h0L.409,3.064a.544.544,0,0,0-.268.919L1.979,5.9v.038L1.558,8.5a.594.594,0,0,0,.843.651L4.545,7.928h.038L6.728,9.116a.594.594,0,0,0,.843-.651L7.15,5.9V5.86Z" transform="translate(57.573 0)"/>
        </g>
      </g>
      <g id="Group_1663" data-name="Group 1663" transform="translate(1320.479 808.533)">
        <rect id="HTB1XMTgXgvGK1Jjy0Fbq6z4vVXaf-2" data-name="HTB1XMTgXgvGK1Jjy0Fbq6z4vVXaf" class="cls-5" width="66.71" height="21.572" rx="3" transform="translate(-0.479 0.467)"/>
        <text id="Write_Reviews" data-name="Write Reviews" class="cls-8" transform="translate(8.521 13.467)"><tspan x="0" y="0">Write Reviews</tspan></text>
      </g>
      <text id="_5" data-name="5" class="cls-9" transform="translate(1131 825)"><tspan x="0" y="0">5</tspan></text>
    </g>
    <g id="CardTypeTabs" transform="translate(814.553 646)">
      <path id="Path_296" data-name="Path 296" class="cls-10" d="M119.748,3351.976H357.954" transform="translate(232.27 -3041.749)"/>
      <g id="Path_297" data-name="Path 297" class="cls-11" transform="translate(289 279)">
        <path class="cls-16" d="M2.8,0H60.217a2.8,2.8,0,0,1,2.8,2.8V31.509H0V2.8A2.8,2.8,0,0,1,2.8,0Z"/>
        <path class="cls-17" d="M 62.01773452758789 30.50886344909668 L 62.01773452758789 2.800792694091797 C 62.01773452758789 1.807832717895508 61.20990371704102 1.00000262260437 60.21694564819336 1.00000262260437 L 2.800785303115845 1.00000262260437 C 1.807835340499878 1.00000262260437 1.00000536441803 1.807832717895508 1.00000536441803 2.800792694091797 L 1.00000536441803 30.50886344909668 L 62.01773452758789 30.50886344909668 M 63.01773452758789 31.50886344909668 L 5.356445399229415e-06 31.50886344909668 L 5.356445399229415e-06 2.800792694091797 C 5.356445399229415e-06 1.253952622413635 1.253955364227295 2.678222699614707e-06 2.800785303115845 2.678222699614707e-06 L 60.21694564819336 2.678222699614707e-06 C 61.76377487182617 2.678222699614707e-06 63.01773452758789 1.253952622413635 63.01773452758789 2.800792694091797 L 63.01773452758789 31.50886344909668 Z"/>
      </g>
      <g id="Path_298" data-name="Path 298" class="cls-12" transform="translate(354.118 279)">
        <path class="cls-16" d="M 62.51773452758789 31.00886344909668 L 0.5000053644180298 31.00886344909668 L 0.5000053644180298 2.800792694091797 C 0.5000053644180298 1.532132625579834 1.532135367393494 0.5000026822090149 2.800785303115845 0.5000026822090149 L 60.21694564819336 0.5000026822090149 C 61.4856071472168 0.5000026822090149 62.51773452758789 1.532132625579834 62.51773452758789 2.800792694091797 L 62.51773452758789 31.00886344909668 Z"/>
        <path class="cls-17" d="M 62.01773452758789 30.50886344909668 L 62.01773452758789 2.800792694091797 C 62.01773452758789 1.807832717895508 61.20990371704102 1.00000262260437 60.21694564819336 1.00000262260437 L 2.800785303115845 1.00000262260437 C 1.807835340499878 1.00000262260437 1.00000536441803 1.807832717895508 1.00000536441803 2.800792694091797 L 1.00000536441803 30.50886344909668 L 62.01773452758789 30.50886344909668 M 63.01773452758789 31.50886344909668 L 5.356445399229415e-06 31.50886344909668 L 5.356445399229415e-06 2.800792694091797 C 5.356445399229415e-06 1.253952622413635 1.253955364227295 2.678222699614707e-06 2.800785303115845 2.678222699614707e-06 L 60.21694564819336 2.678222699614707e-06 C 61.76377487182617 2.678222699614707e-06 63.01773452758789 1.253952622413635 63.01773452758789 2.800792694091797 L 63.01773452758789 31.50886344909668 Z"/>
      </g>
      <g id="Path_299" data-name="Path 299" class="cls-12" transform="translate(419.237 279)">
        <path class="cls-16" d="M 62.51773452758789 31.00886344909668 L 0.5000053644180298 31.00886344909668 L 0.5000053644180298 2.800792694091797 C 0.5000053644180298 1.532132625579834 1.532135367393494 0.5000026822090149 2.800785303115845 0.5000026822090149 L 60.21694564819336 0.5000026822090149 C 61.4856071472168 0.5000026822090149 62.51773452758789 1.532132625579834 62.51773452758789 2.800792694091797 L 62.51773452758789 31.00886344909668 Z"/>
        <path class="cls-17" d="M 62.01773452758789 30.50886344909668 L 62.01773452758789 2.800792694091797 C 62.01773452758789 1.807832717895508 61.20990371704102 1.00000262260437 60.21694564819336 1.00000262260437 L 2.800785303115845 1.00000262260437 C 1.807835340499878 1.00000262260437 1.00000536441803 1.807832717895508 1.00000536441803 2.800792694091797 L 1.00000536441803 30.50886344909668 L 62.01773452758789 30.50886344909668 M 63.01773452758789 31.50886344909668 L 5.356445399229415e-06 31.50886344909668 L 5.356445399229415e-06 2.800792694091797 C 5.356445399229415e-06 1.253952622413635 1.253955364227295 2.678222699614707e-06 2.800785303115845 2.678222699614707e-06 L 60.21694564819336 2.678222699614707e-06 C 61.76377487182617 2.678222699614707e-06 63.01773452758789 1.253952622413635 63.01773452758789 2.800792694091797 L 63.01773452758789 31.50886344909668 Z"/>
      </g>
      <text id="Tab_1" data-name="Tab 1" class="cls-13" transform="translate(318.606 297.803)"><tspan x="-11.296" y="0">Tab 1</tspan></text>
      <text id="Tab_2" data-name="Tab 2" class="cls-14" transform="translate(383.724 297.803)"><tspan x="-11.296" y="0">Tab 2</tspan></text>
      <text id="Tab_3" data-name="Tab 3" class="cls-14" transform="translate(448.842 297.803)"><tspan x="-11.296" y="0">Tab 3</tspan></text>
      <rect id="Rectangle_162" data-name="Rectangle 162" class="cls-15" width="61.617" height="0.7" transform="translate(289.7 309.809)"/>
    </g>
  </g>
</svg>
