<svg xmlns="http://www.w3.org/2000/svg" xmlns:xlink="http://www.w3.org/1999/xlink" viewBox="13654.5 12964.576 359.895 212.115">
  <defs>
    <style>
      .cls-1, .cls-7, .cls-8, .cls-9 {
        fill: #fff;
      }

      .cls-2 {
        fill: #e8e9ec;
        opacity: 0.8;
      }

      .cls-3, .cls-4, .cls-5 {
        fill: #242539;
      }

      .cls-4, .cls-5, .cls-7 {
        font-size: 8px;
      }

      .cls-4, .cls-7, .cls-8, .cls-9 {
        font-family: SegoeUI-Bold, Segoe UI;
        font-weight: 700;
      }

      .cls-5 {
        font-family: SegoeUI-Semibold, Segoe UI;
        font-weight: 600;
      }

      .cls-6 {
        fill: #ffb303;
      }

      .cls-8 {
        font-size: 15px;
      }

      .cls-9 {
        font-size: 12px;
      }

      .cls-10, .cls-11 {
        stroke: none;
      }

      .cls-11 {
        fill: #e9e9f0;
      }

      .cls-12 {
        filter: url(#BG-2);
      }

      .cls-13 {
        filter: url(#BG);
      }
    </style>
    <filter id="BG" x="13654.5" y="12964.576" width="359.895" height="212.115" filterUnits="userSpaceOnUse">
      <feOffset dy="3" input="SourceAlpha"/>
      <feGaussianBlur stdDeviation="7.5" result="blur"/>
      <feFlood flood-opacity="0.039"/>
      <feComposite operator="in" in2="blur"/>
      <feComposite in="SourceGraphic"/>
    </filter>
    <filter id="BG-2" x="13674" y="12986" width="319.224" height="84.417" filterUnits="userSpaceOnUse">
      <feOffset dy="2" input="SourceAlpha"/>
      <feGaussianBlur stdDeviation="3" result="blur-2"/>
      <feFlood flood-opacity="0.039"/>
      <feComposite operator="in" in2="blur-2"/>
      <feComposite in="SourceGraphic"/>
    </filter>
  </defs>
  <g id="Group_1784" data-name="Group 1784" transform="translate(12923 12103)">
    <g class="cls-13" transform="matrix(1, 0, 0, 1, -12923, -12103)">
      <g id="BG-3" data-name="BG" class="cls-1" transform="translate(13677 12984.08)">
        <path class="cls-10" d="M 314.3949279785156 166.6152954101563 L 0.5000024437904358 166.6152954101563 L 0.5000024437904358 0.4999938607215881 L 314.3949279785156 0.4999938607215881 L 314.3949279785156 166.6152954101563 Z"/>
        <path class="cls-11" d="M 313.8949279785156 166.1153106689453 L 313.8949279785156 1.000022649765015 L 1.000005602836609 1.000022649765015 L 1.000005602836609 166.1153106689453 L 313.8949279785156 166.1153106689453 M 314.8949279785156 167.1153106689453 L 5.655924724123906e-06 167.1153106689453 L 5.655924724123906e-06 2.270507866342086e-05 L 314.8949279785156 2.270507866342086e-05 L 314.8949279785156 167.1153106689453 Z"/>
      </g>
    </g>
    <g class="cls-12" transform="matrix(1, 0, 0, 1, -12923, -12103)">
      <path id="BG-4" data-name="BG" class="cls-2" d="M0,0H301.224V66.417H0Z" transform="translate(13683 12993)"/>
    </g>
    <g id="Group_1662" data-name="Group 1662" transform="translate(104.255 109.893)">
      <rect id="HTB1XMTgXgvGK1Jjy0Fbq6z4vVXaf" class="cls-3" width="301.191" height="46.191" rx="5" transform="translate(655.745 881.108)"/>
    </g>
    <text id="CUSTOMER_REVIEWS" data-name="CUSTOMER REVIEWS" class="cls-4" transform="translate(776.568 905.935)"><tspan x="0" y="0">CUSTOMER REVIEWS</tspan></text>
    <rect id="HTB1XMTgXgvGK1Jjy0Fbq6z4vVXaf-2" data-name="HTB1XMTgXgvGK1Jjy0Fbq6z4vVXaf" class="cls-3" width="31.245" height="31.245" rx="5" transform="translate(776 914)"/>
    <g id="Group_1164" data-name="Group 1164" transform="translate(815.336 920)">
      <text id="Base_on_reviews" data-name="Base on reviews" class="cls-5" transform="translate(0 17.695)"><tspan x="0" y="0">Base on reviews</tspan></text>
      <g id="Group_1163" data-name="Group 1163" transform="translate(0 0)">
        <path id="Path_362" data-name="Path 362" class="cls-6" d="M9.026,3.983a.544.544,0,0,0-.268-.919L6.23,2.681h0L5.158.345a.56.56,0,0,0-1.034,0L2.975,2.681h0L.409,3.064a.544.544,0,0,0-.268.919L1.979,5.9v.038L1.558,8.5a.594.594,0,0,0,.843.651L4.545,7.928h.038L6.728,9.116a.594.594,0,0,0,.843-.651L7.15,5.9V5.86Z" transform="translate(0.021 0)"/>
        <path id="Path_362-2" data-name="Path 362" class="cls-6" d="M9.026,3.983a.544.544,0,0,0-.268-.919L6.23,2.681h0L5.158.345a.56.56,0,0,0-1.034,0L2.975,2.681h0L.409,3.064a.544.544,0,0,0-.268.919L1.979,5.9v.038L1.558,8.5a.594.594,0,0,0,.843.651L4.545,7.928h.038L6.728,9.116a.594.594,0,0,0,.843-.651L7.15,5.9V5.86Z" transform="translate(14.294 0)"/>
        <path id="Path_362-3" data-name="Path 362" class="cls-6" d="M9.026,3.983a.544.544,0,0,0-.268-.919L6.23,2.681h0L5.158.345a.56.56,0,0,0-1.034,0L2.975,2.681h0L.409,3.064a.544.544,0,0,0-.268.919L1.979,5.9v.038L1.558,8.5a.594.594,0,0,0,.843.651L4.545,7.928h.038L6.728,9.116a.594.594,0,0,0,.843-.651L7.15,5.9V5.86Z" transform="translate(28.567 0)"/>
        <path id="Path_362-4" data-name="Path 362" class="cls-6" d="M9.026,3.983a.544.544,0,0,0-.268-.919L6.23,2.681h0L5.158.345a.56.56,0,0,0-1.034,0L2.975,2.681h0L.409,3.064a.544.544,0,0,0-.268.919L1.979,5.9v.038L1.558,8.5a.594.594,0,0,0,.843.651L4.545,7.928h.038L6.728,9.116a.594.594,0,0,0,.843-.651L7.15,5.9V5.86Z" transform="translate(43.3 0)"/>
        <path id="Path_362-5" data-name="Path 362" class="cls-6" d="M9.026,3.983a.544.544,0,0,0-.268-.919L6.23,2.681h0L5.158.345a.56.56,0,0,0-1.034,0L2.975,2.681h0L.409,3.064a.544.544,0,0,0-.268.919L1.979,5.9v.038L1.558,8.5a.594.594,0,0,0,.843.651L4.545,7.928h.038L6.728,9.116a.594.594,0,0,0,.843-.651L7.15,5.9V5.86Z" transform="translate(57.573 0)"/>
      </g>
    </g>
    <g id="Group_1165" data-name="Group 1165" transform="translate(977.479 918.533)">
      <rect id="HTB1XMTgXgvGK1Jjy0Fbq6z4vVXaf-3" data-name="HTB1XMTgXgvGK1Jjy0Fbq6z4vVXaf" class="cls-3" width="66.71" height="21.572" rx="3" transform="translate(-0.479 0.467)"/>
      <text id="Write_Reviews" data-name="Write Reviews" class="cls-7" transform="translate(8.521 13.467)"><tspan x="0" y="0">Write Reviews</tspan></text>
    </g>
    <text id="_5" data-name="5" class="cls-8" transform="translate(788 935)"><tspan x="0" y="0">5</tspan></text>
    <text id="FOOTER" class="cls-9" transform="translate(889 1019)"><tspan x="0" y="0">FOOTER</tspan></text>
  </g>
</svg>
