<?xml version="1.0" standalone="no"?>
<!DOCTYPE svg PUBLIC "-//W3C//DTD SVG 1.1//EN" "http://www.w3.org/Graphics/SVG/1.1/DTD/svg11.dtd" >
<svg xmlns="http://www.w3.org/2000/svg">
<metadata>Generated by IcoMoon</metadata>
<defs>
<font id="icomoon" horiz-adv-x="1024">
<font-face units-per-em="1024" ascent="960" descent="-64" />
<missing-glyph horiz-adv-x="1024" />
<glyph unicode="&#x20;" horiz-adv-x="512" d="" />
<glyph unicode="&#xe900;" glyph-name="check-form" d="M795.494 417.28v460.237h-687.411v-859.034h316.109c22.777 0 41.242-18.464 41.242-41.242s-18.464-41.242-41.242-41.242v0h-357.376c-22.728 0.087-41.129 18.488-41.216 41.208v941.576c0.087 22.728 18.488 41.129 41.208 41.216h769.646c22.728-0.087 41.129-18.488 41.216-41.208v-501.768c0.075-0.933 0.118-2.019 0.118-3.115 0-22.763-18.453-41.216-41.216-41.216s-41.216 18.453-41.216 41.216c0 1.187 0.050 2.362 0.148 3.523l-0.010-0.152zM1007.872 316.928c-7.284 6.558-16.973 10.57-27.6 10.57-12.421 0-23.562-5.481-31.136-14.156l-0.042-0.049-226.099-251.546-113.408 109.261c-7.401 7.069-17.452 11.419-28.518 11.419-22.821 0-41.32-18.5-41.32-41.32 0-11.754 4.908-22.362 12.786-29.886l0.016-0.015 144.333-138.803c7.31-7.218 17.359-11.676 28.45-11.676 0.15 0 0.3 0.001 0.45 0.002h1.359c11.503 0.537 21.702 5.712 28.842 13.683l0.034 0.039 254.259 283.136c6.904 7.388 11.144 17.342 11.144 28.286 0 12.231-5.295 23.226-13.718 30.817l-0.037 0.033zM644.147 719.36h-370.893c-22.777 0-41.242-18.464-41.242-41.242s18.464-41.242 41.242-41.242h371.098c22.777 0 41.242 18.464 41.242 41.242s-18.464 41.242-41.242 41.242v0zM685.363 451.328c-0.087 22.728-18.488 41.129-41.208 41.216h-370.901c-22.777 0-41.242-18.464-41.242-41.242s18.464-41.242 41.242-41.242v0h371.098c22.693 0.203 41.011 18.646 41.011 41.368 0 0.001 0 0.001 0 0.002v0zM273.254 272.742c-22.777 0-41.242-18.464-41.242-41.242s18.464-41.242 41.242-41.242v0h109.978c22.777 0 41.242 18.464 41.242 41.242s-18.464 41.242-41.242 41.242v0z" />
<glyph unicode="&#xe901;" glyph-name="Group-3" d="M956.254 932.999h-868.568c-48.567-0.635-87.694-40.154-87.694-88.811 0-0.4 0.003-0.8 0.008-1.199l-0.001 0.061v-629.221c-0.005-0.339-0.007-0.738-0.007-1.139 0-48.658 39.127-88.177 87.634-88.811l0.060-0.001h116.628c-2.744 16.1-4.312 34.646-4.312 53.558 0 0.118 0 0.237 0 0.355v-0.019c0.052 21.329 2.010 42.165 5.714 62.391l-0.325-2.137h-94.154v301.218h821.248v-300.948h-94.262c3.379-18.089 5.338-38.925 5.389-60.21v-0.044c0-0.1 0-0.218 0-0.336 0-18.912-1.568-37.458-4.581-55.515l0.27 1.956h116.628c48.567 0.635 87.694 40.154 87.694 88.811 0 0.4-0.003 0.8-0.008 1.199l0.001-0.061v629.221c0.003 0.26 0.004 0.567 0.004 0.874 0 48.543-38.943 87.99-87.291 88.806l-0.076 0.001zM932.756 724.749h-821.517v94.316h821.248zM539.379 441.479c-1.379 0.028-3.005 0.043-4.635 0.043-136.503 0-247.161-110.658-247.161-247.161s110.658-247.161 247.161-247.161c136.503 0 247.161 110.658 247.161 247.161 0 0.004 0 0.007 0 0.011v0c0.006 0.66 0.010 1.44 0.010 2.221 0 134.423-108.303 243.551-242.41 244.885l-0.126 0.001zM609.118 96.93c-10.128-12.665-23.979-21.971-39.884-26.284l-0.537-0.124c-5.675-0.755-10.008-5.564-10.008-11.385 0-0.642 0.053-1.272 0.154-1.886l-0.009 0.067c0.323-7.222 0-14.444 0-21.989 0.065-0.401 0.102-0.864 0.102-1.335 0-4.852-3.933-8.785-8.785-8.785-0.302 0-0.6 0.015-0.894 0.045l0.037-0.003q-11.587-0.485-23.121 0c-6.791 0-9.863 4.096-9.863 10.779v16.168c0 11.641-0.593 12.288-11.749 14.12-15.274 2.108-29.099 6.304-41.888 12.335l0.874-0.371c-10.186 5.012-11.426 7.545-8.354 18.54 2.156 8.192 4.312 16.168 6.791 24.199 2.803 9.432 5.389 10.402 13.905 5.982 13.238-7.011 28.682-11.915 45.045-13.795l0.604-0.056c2.357-0.361 5.077-0.567 7.845-0.567 7.987 0 15.574 1.717 22.41 4.802l-0.344-0.139c9.013 3.514 15.283 12.126 15.283 22.201 0 7.917-3.871 14.931-9.824 19.25l-0.069 0.048c-4.859 4.071-10.47 7.466-16.558 9.929l-0.419 0.15c-18.307 6.923-33.666 14.175-48.363 22.462l1.744-0.904c-22.39 11.157-37.502 33.889-37.502 60.151 0 1.591 0.055 3.169 0.165 4.733l-0.012-0.211c0.946 31.131 21.92 57.118 50.431 65.571l0.499 0.127c12.342 4.689 12.665 4.419 12.665 17.624v13.528c0.323 10.078 1.832 11.641 11.749 11.965h8.947c20.965 0 20.965 0 20.965-21.558 0-15.091 0-15.091 14.821-17.3 12.139-2.062 22.997-5.455 33.167-10.094l-0.83 0.339c4.016-1.185 6.897-4.839 6.897-9.166 0-1.342-0.277-2.618-0.777-3.777l0.024 0.062c-2.479-9.108-4.958-18.54-8.030-27.379s-5.389-9.755-13.581-5.982c-13.071 6.685-28.512 10.602-44.868 10.602-2.228 0-4.438-0.073-6.63-0.216l0.298 0.016c-4.926-0.159-9.571-1.174-13.853-2.899l0.272 0.097c-7.868-2.809-13.398-10.196-13.398-18.875 0-6.711 3.306-12.65 8.379-16.277l0.061-0.041c6.412-4.989 13.726-9.309 21.563-12.639l0.641-0.242c16.172-6.259 29.588-12.599 42.49-19.751l-1.746 0.888c23.723-12.832 39.567-37.526 39.567-65.921 0-17.795-6.222-34.136-16.61-46.967l0.11 0.14z" />
<glyph unicode="&#xe902;" glyph-name="icon_calendar" d="M128 640v-576h768v576zM832 832h128c1.085 0.069 2.352 0.109 3.629 0.109 33.402 0 60.48-27.078 60.48-60.48 0-1.277-0.040-2.544-0.118-3.801l0.009 0.172v-768c0.069-1.085 0.109-2.352 0.109-3.629 0-33.402-27.078-60.48-60.48-60.48-1.277 0-2.544 0.040-3.801 0.118l0.172-0.009h-896c-1.085-0.069-2.352-0.109-3.629-0.109-33.402 0-60.48 27.078-60.48 60.48 0 1.277 0.040 2.544 0.118 3.801l-0.009-0.172v768c-0.069 1.085-0.109 2.352-0.109 3.629 0 33.402 27.078 60.48 60.48 60.48 1.277 0 2.544-0.040 3.801-0.118l-0.172 0.009h128v64c-0.069 1.085-0.109 2.352-0.109 3.629 0 33.402 27.078 60.48 60.48 60.48 1.277 0 2.544-0.040 3.801-0.118l-0.172 0.009c1.085 0.069 2.352 0.109 3.629 0.109 33.402 0 60.48-27.078 60.48-60.48 0-1.277-0.040-2.544-0.118-3.801l0.009 0.172v-64h384v64c0 35.346 28.654 64 64 64s64-28.654 64-64v0zM768 192h-128v128h128zM576 192h-128v128h128zM768 384h-128v128h128zM576 384h-128v128h128zM384 192h-128v128h128z" />
<glyph unicode="&#xe903;" glyph-name="icon_chat-notification-1" d="M723.693 70.984c-25.126-4.441-54.076-7-83.617-7.040h-0.036c-1.516-0.018-3.305-0.028-5.098-0.028-87.867 0-170.058 24.301-240.219 66.55l2.102-1.174c6.4 0 12.801-1.344 19.521-1.344 266.257 0 487.966 169.739 534.625 392.921 44.062-43.020 71.787-102.603 73.089-168.664l0.004-0.242c-1.002-62.052-25.469-118.203-64.888-160.135l0.116 0.125h0.768v-256.016zM64.004 420.958c-39.479 51.273-63.462 116.262-64.003 186.831l-0.001 0.125c0 194.444 186.252 352.022 416.026 352.022s416.026-157.578 416.026-352.022-186.252-352.022-416.026-352.022c-0.182 0-0.398 0-0.613 0-64.362 0-125.747 12.745-181.77 35.849l3.172-1.158-172.811-98.63z" />
<glyph unicode="&#xe904;" glyph-name="icon_customers" d="M64-64c0.653 211.814 172.186 383.347 383.938 384h128.062c211.814-0.653 383.347-172.186 384-383.938v-0.062zM230.4 64h569.6c-45.596 77.104-128.314 128.002-222.92 128.002-0.38 0-0.759-0.001-1.139-0.002h-121.541c-0.299 0.001-0.653 0.002-1.007 0.002-94.627 0-177.366-50.896-222.337-126.805l-0.656-1.197zM256 640v64c0.435 141.209 114.791 255.565 255.958 256h0.042c141.209-0.435 255.565-114.791 256-255.958v-64.042c-0.435-141.209-114.791-255.565-255.958-256h-0.042c-141.209 0.435-255.565 114.791-256 255.958v0.042zM384 704v-64c0.218-70.605 57.395-127.782 127.979-128h0.021c70.605 0.218 127.782 57.395 128 127.979v64.021c-0.218 70.605-57.395 127.782-127.979 128h-0.021c-70.605-0.218-127.782-57.395-128-127.979v-0.021z" />
<glyph unicode="&#xe905;" glyph-name="icon_dashboard-3" d="M832-64c-1.085-0.069-2.352-0.109-3.629-0.109-33.402 0-60.48 27.078-60.48 60.48 0 1.277 0.040 2.544 0.118 3.801l-0.009-0.172v576c-0.069 1.085-0.109 2.352-0.109 3.629 0 33.402 27.078 60.48 60.48 60.48 1.277 0 2.544-0.040 3.801-0.118l-0.172 0.009h128c1.085 0.069 2.352 0.109 3.629 0.109 33.402 0 60.48-27.078 60.48-60.48 0-1.277-0.040-2.544-0.118-3.801l0.009 0.172v-576c0.069-1.085 0.109-2.352 0.109-3.629 0-33.402-27.078-60.48-60.48-60.48-1.277 0-2.544 0.040-3.801 0.118l0.172-0.009zM448-64c-1.105-0.072-2.396-0.113-3.697-0.113-33.367 0-60.416 27.049-60.416 60.416 0 1.301 0.041 2.592 0.122 3.872l-0.009-0.175v896c-0.069 1.085-0.109 2.352-0.109 3.629 0 33.402 27.078 60.48 60.48 60.48 1.277 0 2.544-0.040 3.801-0.118l-0.172 0.009h128c1.085 0.069 2.352 0.109 3.629 0.109 33.402 0 60.48-27.078 60.48-60.48 0-1.277-0.040-2.544-0.118-3.801l0.009 0.172v-896c0.072-1.105 0.113-2.396 0.113-3.697 0-33.367-27.049-60.416-60.416-60.416-1.301 0-2.592 0.041-3.872 0.122l0.175-0.009zM64-64c-1.085-0.069-2.352-0.109-3.629-0.109-33.402 0-60.48 27.078-60.48 60.48 0 1.277 0.040 2.544 0.118 3.801l-0.009-0.172v256c-0.069 1.085-0.109 2.352-0.109 3.629 0 33.402 27.078 60.48 60.48 60.48 1.277 0 2.544-0.040 3.801-0.118l-0.172 0.009h128c1.064 0.067 2.308 0.105 3.561 0.105 33.438 0 60.544-27.106 60.544-60.544 0-1.253-0.038-2.496-0.113-3.73l0.008 0.169v-256c0.069-1.085 0.109-2.352 0.109-3.629 0-33.402-27.078-60.48-60.48-60.48-1.277 0-2.544 0.040-3.801 0.118l0.172-0.009z" />
<glyph unicode="&#xe906;" glyph-name="icon_heart" d="M948.964 820.679c-50.272 50.921-120.069 82.461-197.234 82.461s-146.962-31.54-197.205-82.432l-38.827-38.827-38.798 38.798c-50.477 50.477-120.209 81.697-197.234 81.697-154.049 0-278.931-124.882-278.931-278.931 0-77.025 31.22-146.757 81.697-197.234l433.266-433.266 433.266 433.266c50.921 50.272 82.461 120.069 82.461 197.234s-31.54 146.962-82.432 197.205l-0.029 0.029z" />
<glyph unicode="&#xe907;" glyph-name="icon_home-2" d="M997.184 628.096l-448 320c-10.326 7.447-23.234 11.91-37.184 11.91s-26.858-4.463-37.373-12.040l0.189 0.13-448-320c-16.32-11.751-26.821-30.697-26.821-52.096 0-35.349 28.656-64.005 64.005-64.005 13.95 0 26.858 4.463 37.373 12.039l-0.189-0.13 26.816 19.136v-543.040c0-35.346 28.654-64 64-64v0h640c35.346 0 64 28.654 64 64v0 543.040c16.708-16.681 38.815-27.959 63.474-30.987l0.526-0.053c0.022 0 0.047 0 0.073 0 35.346 0 64 28.654 64 64 0 21.4-10.503 40.346-26.635 51.966l-0.19 0.13zM768 64h-128v192c0 70.692-57.308 128-128 128s-128-57.308-128-128v0-192h-128v570.496l256 182.848 256-182.848z" />
<glyph unicode="&#xe908;" glyph-name="icon_inbox-3" d="M960 896h-896c-35.346 0-64-28.654-64-64v0-768c0-35.346 28.654-64 64-64v0h896c35.346 0 64 28.654 64 64v0 768c0 35.346-28.654 64-64 64v0zM896 128h-768v401.728l352-201.28c9.118-5.299 20.066-8.427 31.744-8.427s22.626 3.128 32.051 8.592l-0.307-0.164 352.512 201.28zM896 677.12l-384-219.456-384 219.456v90.88h768z" />
<glyph unicode="&#xe909;" glyph-name="icon_money-bag" d="M266.688-64c-73.675 0.674-138.419 38.305-176.664 95.228l-0.488 0.772c-16.052 27.568-25.527 60.678-25.527 96s9.475 68.431 26.022 96.925l-0.496-0.925 224.896 384c13.252 19.423 35.28 32.008 60.247 32.008 0.374 0 0.748-0.003 1.121-0.008l-0.056 0.001h272.512c0.327 0.005 0.712 0.008 1.099 0.008 24.957 0 46.975-12.586 60.052-31.757l0.162-0.251 224.896-384c16.093-27.558 25.595-60.669 25.595-96s-9.502-68.442-26.089-96.918l0.494 0.918c-38.733-57.694-103.476-95.326-177.049-95.999l-0.103-0.001zM375.488 768c-0.58-0.019-1.262-0.030-1.946-0.030-17.913 0-34.107 7.359-45.723 19.219l-0.011 0.011-68.16 64c-12.93 11.486-21.036 28.157-21.036 46.721 0 34.463 27.937 62.4 62.4 62.4 2.225 0 4.422-0.116 6.586-0.343l-0.27 0.023h408.768c0.935 0.049 2.031 0.077 3.133 0.077 35.099 0 63.552-28.453 63.552-63.552 0-17.743-7.271-33.787-18.996-45.317l-0.009-0.009-68.16-64c-11.627-11.871-27.821-19.23-45.734-19.23-0.684 0-1.366 0.011-2.045 0.032l0.099-0.002z" />
<glyph unicode="&#xe90a;" glyph-name="icon_products" d="M896.056-64.064v1024.064h128.008v-1024.064zM0-64.064v1024.064h128.008v-1024.064zM704.044 255.956v704.044h128.008v-704.044zM384.024 255.956v704.044h256.016v-704.044zM192.012 255.956v704.044h128.008v-704.044z" />
<glyph unicode="&#xe90b;" glyph-name="icon_setting-1" d="M851.2 627.2l70.4 134.4-89.6 89.6-134.4-70.4c-20.309 11.661-43.91 20.555-68.962 25.37l-1.438 0.23-51.2 153.6h-128l-51.2-147.2c-24.308-6.335-45.598-15.096-65.325-26.292l1.325 0.692-134.4 70.4-96-96 70.4-134.4c-10.504-18.401-19.265-39.691-25.182-62.136l-0.418-1.864-147.2-51.2v-128l147.2-51.2c6.4-25.6 19.2-44.8 25.6-70.4l-70.4-134.4 89.6-89.6 134.4 70.4c20.309-11.661 43.91-20.555 68.962-25.37l1.438-0.23 51.2-147.2h128l51.2 147.2c25.6 6.4 44.8 19.2 70.4 25.6l134.4-70.4 89.6 89.6-70.4 134.4c11.661 20.309 20.555 43.91 25.37 68.962l0.23 1.438 147.2 51.2v128l-147.2 51.2c-6.335 24.308-15.096 45.598-26.292 65.325l0.692-1.325zM512 256c-1.038-0.021-2.262-0.032-3.488-0.032-104.13 0-188.544 84.414-188.544 188.544 0 1.227 0.012 2.45 0.035 3.671l-0.003-0.183c-0.021 1.038-0.032 2.262-0.032 3.488 0 104.13 84.414 188.544 188.544 188.544 1.227 0 2.45-0.012 3.671-0.035l-0.183 0.003c1.038 0.021 2.262 0.032 3.488 0.032 104.13 0 188.544-84.414 188.544-188.544 0-1.227-0.012-2.45-0.035-3.671l0.003 0.183c0.021-1.038 0.032-2.262 0.032-3.488 0-104.13-84.414-188.544-188.544-188.544-1.227 0-2.45 0.012-3.671 0.035l0.183-0.003z" />
<glyph unicode="&#xe90c;" glyph-name="icon_trend-up-1" d="M556.8 576h230.4l-230.4-230.4-256 256-300.8-300.8 89.6-89.6 211.2 211.2 256-256 320 320v-230.4h128v448h-448z" />
<glyph unicode="&#xe90d;" glyph-name="Path--2" horiz-adv-x="905" d="M12.47 939.037v-981.877l867.391 494.719z" />
<glyph unicode="&#xe90e;" glyph-name="Path--7" horiz-adv-x="1022" d="M1004.595 517.734c11.119 10.955 18.007 26.178 18.007 43.009 0 28.872-20.269 53.010-47.355 58.959l-0.4 0.074-280.678 42.547-119.142 259.379c-9.627 22.668-31.701 38.277-57.421 38.277s-47.794-15.609-57.267-37.87l-0.154-0.407-127.59-259.379-284.928-42.547c-27.485-6.023-47.754-30.161-47.754-59.033 0-16.831 6.888-32.053 18-43.001l0.007-0.007 204.134-212.634v-4.25l-46.899-284.979c-0.813-3.886-1.278-8.351-1.278-12.925 0-36.449 29.548-65.997 65.997-65.997 10.488 0 20.404 2.446 29.209 6.799l-0.386-0.173 238.131 136.090h4.25l238.131-131.84c8.42-4.181 18.336-6.627 28.824-6.627 36.449 0 65.997 29.548 65.997 65.997 0 4.574-0.465 9.039-1.351 13.351l0.073-0.426-46.797 284.928v4.25z" />
<glyph unicode="&#xe90f;" glyph-name="Path-452" horiz-adv-x="905" d="M12.47 939.037v-981.877l867.391 494.719z" />
<glyph unicode="&#xe910;" glyph-name="Symbol-69-–-2" d="M204.8 960h614.4c113.108 0 204.8-91.692 204.8-204.8v0-614.4c0-113.108-91.692-204.8-204.8-204.8v0h-614.4c-113.108 0-204.8 91.692-204.8 204.8v0 614.4c0 113.108 91.692 204.8 204.8 204.8v0z" />
<glyph unicode="&#xe911;" glyph-name="Ali-Order_logo_final-01" d="M204.8 960h614.4c113.108 0 204.8-91.692 204.8-204.8v-614.4c0-113.108-91.692-204.8-204.8-204.8h-614.4c-113.108 0-204.8 91.692-204.8 204.8v614.4c0 113.108 91.692 204.8 204.8 204.8z" />
<glyph unicode="&#xe912;" glyph-name="check-form-1" d="M795.494 417.28v460.237h-687.411v-859.034h316.109c22.777 0 41.242-18.464 41.242-41.242s-18.464-41.242-41.242-41.242v0h-357.376c-22.728 0.087-41.129 18.488-41.216 41.208v941.576c0.087 22.728 18.488 41.129 41.208 41.216h769.646c22.728-0.087 41.129-18.488 41.216-41.208v-501.768c0.075-0.933 0.118-2.019 0.118-3.115 0-22.763-18.453-41.216-41.216-41.216s-41.216 18.453-41.216 41.216c0 1.187 0.050 2.362 0.148 3.523l-0.010-0.152zM1007.872 316.928c-7.284 6.558-16.973 10.57-27.6 10.57-12.421 0-23.562-5.481-31.136-14.156l-0.042-0.049-226.099-251.546-113.408 109.261c-7.401 7.069-17.452 11.419-28.518 11.419-22.821 0-41.32-18.5-41.32-41.32 0-11.754 4.908-22.362 12.786-29.886l0.016-0.015 144.333-138.803c7.31-7.218 17.359-11.676 28.45-11.676 0.15 0 0.3 0.001 0.45 0.002h1.359c11.503 0.537 21.702 5.712 28.842 13.683l0.034 0.039 254.259 283.136c6.904 7.388 11.144 17.342 11.144 28.286 0 12.231-5.295 23.226-13.718 30.817l-0.037 0.033zM644.147 719.36h-370.893c-22.777 0-41.242-18.464-41.242-41.242s18.464-41.242 41.242-41.242h371.098c22.777 0 41.242 18.464 41.242 41.242s-18.464 41.242-41.242 41.242v0zM685.363 451.328c-0.087 22.728-18.488 41.129-41.208 41.216h-370.901c-22.777 0-41.242-18.464-41.242-41.242s18.464-41.242 41.242-41.242v0h371.098c22.693 0.203 41.011 18.646 41.011 41.368 0 0.001 0 0.001 0 0.002v0zM273.254 272.742c-22.777 0-41.242-18.464-41.242-41.242s18.464-41.242 41.242-41.242v0h109.978c22.777 0 41.242 18.464 41.242 41.242s-18.464 41.242-41.242 41.242v0z" />
<glyph unicode="&#xe913;" glyph-name="icon_add-user" d="M768.048-64.064v128.008h-128.008v128.008h128.008v128.008h128.008v-128.008h128.008v-128.008h-128.008v-128.008zM0-64.064v64.004c-0.010 0.937-0.016 2.044-0.016 3.152 0 175.010 141.874 316.884 316.884 316.884 1.108 0 2.215-0.006 3.321-0.017l-0.169 0.001h192.012v-128.008h-192.012c-0.641 0.008-1.399 0.012-2.158 0.012-82.077 0-151.766-53.036-176.668-126.706l-0.386-1.314h371.223v-128.008zM192.012 639.98v64.004c0.435 141.218 114.798 255.581 255.974 256.016h0.042c141.218-0.435 255.581-114.798 256.016-255.974v-64.046c-0.435-141.218-114.798-255.581-255.974-256.016h-0.042c-141.218 0.435-255.581 114.798-256.016 255.974v0.042zM320.020 703.984v-64.004c0.218-70.609 57.399-127.79 127.987-128.008h0.021c70.609 0.218 127.79 57.399 128.008 127.987v64.025c-0.218 70.609-57.399 127.79-127.987 128.008h-0.021c-70.609-0.218-127.79-57.399-128.008-127.987v-0.021z" />
<glyph unicode="&#xe914;" glyph-name="icon_calendar-1" d="M128 640v-576h768v576zM832 832h128c1.085 0.069 2.352 0.109 3.629 0.109 33.402 0 60.48-27.078 60.48-60.48 0-1.277-0.040-2.544-0.118-3.801l0.009 0.172v-768c0.069-1.085 0.109-2.352 0.109-3.629 0-33.402-27.078-60.48-60.48-60.48-1.277 0-2.544 0.040-3.801 0.118l0.172-0.009h-896c-1.085-0.069-2.352-0.109-3.629-0.109-33.402 0-60.48 27.078-60.48 60.48 0 1.277 0.040 2.544 0.118 3.801l-0.009-0.172v768c-0.069 1.085-0.109 2.352-0.109 3.629 0 33.402 27.078 60.48 60.48 60.48 1.277 0 2.544-0.040 3.801-0.118l-0.172 0.009h128v64c-0.069 1.085-0.109 2.352-0.109 3.629 0 33.402 27.078 60.48 60.48 60.48 1.277 0 2.544-0.040 3.801-0.118l-0.172 0.009c1.085 0.069 2.352 0.109 3.629 0.109 33.402 0 60.48-27.078 60.48-60.48 0-1.277-0.040-2.544-0.118-3.801l0.009 0.172v-64h384v64c0 35.346 28.654 64 64 64s64-28.654 64-64v0zM768 192h-128v128h128zM576 192h-128v128h128zM768 384h-128v128h128zM576 384h-128v128h128zM384 192h-128v128h128z" />
<glyph unicode="&#xe915;" glyph-name="icon_chat-room" d="M640 128h-320l116.992 128h395.008c35.346 0 64 28.654 64 64v0 384h64c35.346 0 64-28.654 64-64v0-448c0-35.346-28.654-64-64-64v0h-128v-192zM192 384h-128c-35.346 0-64 28.654-64 64v0 448c0 35.346 28.654 64 64 64v0h640c35.346 0 64-28.654 64-64v0-448c0-35.346-28.654-64-64-64v0h-320l-192-192z" />
<glyph unicode="&#xe916;" glyph-name="icon_customers-1" d="M64-64c0.653 211.814 172.186 383.347 383.938 384h128.062c211.814-0.653 383.347-172.186 384-383.938v-0.062zM230.4 64h569.6c-45.596 77.104-128.314 128.002-222.92 128.002-0.38 0-0.759-0.001-1.139-0.002h-121.541c-0.299 0.001-0.653 0.002-1.007 0.002-94.627 0-177.366-50.896-222.337-126.805l-0.656-1.197zM256 640v64c0.435 141.209 114.791 255.565 255.958 256h0.042c141.209-0.435 255.565-114.791 256-255.958v-64.042c-0.435-141.209-114.791-255.565-255.958-256h-0.042c-141.209 0.435-255.565 114.791-256 255.958v0.042zM384 704v-64c0.218-70.605 57.395-127.782 127.979-128h0.021c70.605 0.218 127.782 57.395 128 127.979v64.021c-0.218 70.605-57.395 127.782-127.979 128h-0.021c-70.605-0.218-127.782-57.395-128-127.979v-0.021z" />
<glyph unicode="&#xe917;" glyph-name="icon_down-arrow-small" d="M512 122.182l-512 517.492 132.748 134.144 379.252-383.348 379.252 383.348 132.748-134.144z" />
<glyph unicode="&#xe918;" glyph-name="icon_help-center" d="M512 960c-282.77 0-512-229.23-512-512s229.23-512 512-512c282.77 0 512 229.23 512 512v0c-0.87 282.419-229.581 511.13-511.917 512h-0.083zM512 320c-70.692 0-128 57.308-128 128s57.308 128 128 128c70.692 0 128-57.308 128-128v0c-0.218-70.605-57.395-127.782-127.979-128h-0.021zM512 832c0.436 0.002 0.952 0.003 1.468 0.003 60.063 0 116.814-14.182 167.086-39.381l-2.154 0.978-99.584-99.584c-20 6.304-43 9.937-66.848 9.937s-46.848-3.632-68.476-10.374l1.628 0.437-99.52 99.584c48.118 24.221 104.869 38.403 164.932 38.403 0.516 0 1.032-0.001 1.547-0.003h-0.079zM128 448c-0.002 0.436-0.003 0.952-0.003 1.468 0 60.063 14.182 116.814 39.381 167.086l-0.978-2.154 99.584-99.584c-6.304-20-9.937-43-9.937-66.848s3.632-46.848 10.374-68.476l-0.437 1.628-99.584-99.52c-24.221 48.118-38.403 104.869-38.403 164.932 0 0.516 0.001 1.032 0.003 1.547v-0.079zM512 64c-0.436-0.002-0.952-0.003-1.468-0.003-60.063 0-116.814 14.182-167.086 39.381l2.154-0.978 99.584 99.584c20-6.304 43-9.937 66.848-9.937s46.848 3.632 68.476 10.374l-1.628-0.437 99.52-99.584c-48.118-24.221-104.869-38.403-164.932-38.403-0.516 0-1.032 0.001-1.547 0.003h0.079zM857.6 281.6l-99.584 99.584c6.304 20 9.937 43 9.937 66.848s-3.632 46.848-10.374 68.476l0.437-1.628 99.584 99.52c24.225-48.589 38.402-105.839 38.402-166.4s-14.178-117.811-39.395-168.611l0.993 2.211z" />
<glyph unicode="&#xe919;" glyph-name="icon_home-3" d="M997.184 628.096l-448 320c-10.326 7.447-23.234 11.91-37.184 11.91s-26.858-4.463-37.373-12.040l0.189 0.13-448-320c-16.32-11.751-26.821-30.697-26.821-52.096 0-35.349 28.656-64.005 64.005-64.005 13.95 0 26.858 4.463 37.373 12.039l-0.189-0.13 26.816 19.136v-543.040c0-35.346 28.654-64 64-64v0h640c35.346 0 64 28.654 64 64v0 543.040c16.708-16.681 38.815-27.959 63.474-30.987l0.526-0.053c0.022 0 0.047 0 0.073 0 35.346 0 64 28.654 64 64 0 21.4-10.503 40.346-26.635 51.966l-0.19 0.13zM768 64h-128v192c0 70.692-57.308 128-128 128s-128-57.308-128-128v0-192h-128v570.496l256 182.848 256-182.848z" />
<glyph unicode="&#xe91a;" glyph-name="icon_Invoices" d="M896 960h-768c-1.085 0.069-2.352 0.109-3.629 0.109-33.402 0-60.48-27.078-60.48-60.48 0-1.277 0.040-2.544 0.118-3.801l-0.009 0.172v-960l192 128 128-128 128 128 128-128 128 128 192-128v960c0.069 1.085 0.109 2.352 0.109 3.629 0 33.402-27.078 60.48-60.48 60.48-1.277 0-2.544-0.040-3.801-0.118l0.172 0.009zM768 320h-512v128h512zM768 576h-512v128h512z" />
<glyph unicode="&#xe91b;" glyph-name="icon_money-bag-1" d="M266.688-64c-73.675 0.674-138.419 38.305-176.664 95.228l-0.488 0.772c-16.052 27.568-25.527 60.678-25.527 96s9.475 68.431 26.022 96.925l-0.496-0.925 224.896 384c13.252 19.423 35.28 32.008 60.247 32.008 0.374 0 0.748-0.003 1.121-0.008l-0.056 0.001h272.512c0.327 0.005 0.712 0.008 1.099 0.008 24.957 0 46.975-12.586 60.052-31.757l0.162-0.251 224.896-384c16.093-27.558 25.595-60.669 25.595-96s-9.502-68.442-26.089-96.918l0.494 0.918c-38.733-57.694-103.476-95.326-177.049-95.999l-0.103-0.001zM375.488 768c-0.58-0.019-1.262-0.030-1.946-0.030-17.913 0-34.107 7.359-45.723 19.219l-0.011 0.011-68.16 64c-12.93 11.486-21.036 28.157-21.036 46.721 0 34.463 27.937 62.4 62.4 62.4 2.225 0 4.422-0.116 6.586-0.343l-0.27 0.023h408.768c0.935 0.049 2.031 0.077 3.133 0.077 35.099 0 63.552-28.453 63.552-63.552 0-17.743-7.271-33.787-18.996-45.317l-0.009-0.009-68.16-64c-11.627-11.871-27.821-19.23-45.734-19.23-0.684 0-1.366 0.011-2.045 0.032l0.099-0.002z" />
<glyph unicode="&#xe91c;" glyph-name="icon_products-1" d="M896.056-64.064v1024.064h128.008v-1024.064zM0-64.064v1024.064h128.008v-1024.064zM704.044 255.956v704.044h128.008v-704.044zM384.024 255.956v704.044h256.016v-704.044zM192.012 255.956v704.044h128.008v-704.044z" />
<glyph unicode="&#xe91d;" glyph-name="icon_star" horiz-adv-x="1022" d="M1004.557 517.721c11.127 10.959 18.021 26.189 18.021 43.029 0 28.881-20.277 53.026-47.372 58.975l-0.4 0.074-280.7 42.518-118.944 259.382c-9.617 22.681-31.696 38.301-57.422 38.301s-47.805-15.62-57.269-37.894l-0.154-0.407-127.729-259.382-284.916-42.518c-27.495-6.023-47.772-30.168-47.772-59.049 0-16.84 6.894-32.070 18.014-43.021l0.008-0.007 204.097-212.648v-4.275l-46.852-284.916c-0.819-3.9-1.288-8.382-1.288-12.973 0-36.452 29.55-66.002 66.002-66.002 10.552 0 20.526 2.476 29.372 6.879l-0.383-0.173 238.182 136.104h4.275l238.182-131.829c8.463-4.23 18.436-6.707 28.989-6.707 36.452 0 66.002 29.55 66.002 66.002 0 4.591-0.469 9.073-1.361 13.4l0.074-0.427-46.852 284.916v4.275z" />
<glyph unicode="&#xe91e;" glyph-name="icon_up-arrow-small" d="M512 773.818l512-517.492-132.748-134.144-379.252 383.348-379.252-383.348-132.748 134.144z" />
<glyph unicode="&#xe91f;" glyph-name="Path-3" horiz-adv-x="905" d="M12.47 939.037v-981.877l867.391 494.719z" />
<glyph unicode="&#xe920;" glyph-name="aliexpress" d="M204.8 960h614.4c113.108 0 204.8-91.692 204.8-204.8v-614.4c0-113.108-91.692-204.8-204.8-204.8h-614.4c-113.108 0-204.8 91.692-204.8 204.8v614.4c0 113.108 91.692 204.8 204.8 204.8z" />
<glyph unicode="&#xe921;" glyph-name="box" d="M605.824 439.936l-52.224-26.56v-477.376l470.4 238.592v477.376zM691.008 868.032l-180.928 91.968-483.456-245.184 181.12-91.968zM993.28 714.816l-208.512 104.32-483.2-245.184 27.584-12.8 180.928-91.776 179.968 91.136zM265.088 398.528l-86.592 39.104v121.6l-178.496 90.176v-473.984l467.2-236.8v473.984l-201.92 102.4z" />
<glyph unicode="&#xe922;" glyph-name="box-1" d="M605.824 439.936l-52.224-26.56v-477.376l470.4 238.592v477.376zM691.008 868.032l-180.928 91.968-483.456-245.184 181.12-91.968zM993.28 714.816l-208.512 104.32-483.2-245.184 27.584-12.8 180.928-91.776 179.968 91.136zM265.088 398.528l-86.592 39.104v121.6l-178.496 90.176v-473.984l467.2-236.8v473.984l-201.92 102.4z" />
<glyph unicode="&#xe923;" glyph-name="Group" d="M956.254 932.999h-868.568c-48.567-0.635-87.694-40.154-87.694-88.811 0-0.4 0.003-0.8 0.008-1.199l-0.001 0.061v-629.221c-0.005-0.339-0.007-0.738-0.007-1.139 0-48.658 39.127-88.177 87.634-88.811l0.060-0.001h116.628c-2.744 16.1-4.312 34.646-4.312 53.558 0 0.118 0 0.237 0 0.355v-0.019c0.052 21.329 2.010 42.165 5.714 62.391l-0.325-2.137h-94.154v301.218h821.248v-300.948h-94.262c3.379-18.089 5.338-38.925 5.389-60.21v-0.044c0-0.1 0-0.218 0-0.336 0-18.912-1.568-37.458-4.581-55.515l0.27 1.956h116.628c48.567 0.635 87.694 40.154 87.694 88.811 0 0.4-0.003 0.8-0.008 1.199l0.001-0.061v629.221c0.003 0.26 0.004 0.567 0.004 0.874 0 48.543-38.943 87.99-87.291 88.806l-0.076 0.001zM932.756 724.749h-821.517v94.316h821.248zM539.379 441.479c-1.379 0.028-3.005 0.043-4.635 0.043-136.503 0-247.161-110.658-247.161-247.161s110.658-247.161 247.161-247.161c136.503 0 247.161 110.658 247.161 247.161 0 0.004 0 0.007 0 0.011v0c0.006 0.66 0.010 1.44 0.010 2.221 0 134.423-108.303 243.551-242.41 244.885l-0.126 0.001zM609.118 96.93c-10.128-12.665-23.979-21.971-39.884-26.284l-0.537-0.124c-5.675-0.755-10.008-5.564-10.008-11.385 0-0.642 0.053-1.272 0.154-1.886l-0.009 0.067c0.323-7.222 0-14.444 0-21.989 0.065-0.401 0.102-0.864 0.102-1.335 0-4.852-3.933-8.785-8.785-8.785-0.302 0-0.6 0.015-0.894 0.045l0.037-0.003q-11.587-0.485-23.121 0c-6.791 0-9.863 4.096-9.863 10.779v16.168c0 11.641-0.593 12.288-11.749 14.12-15.274 2.108-29.099 6.304-41.888 12.335l0.874-0.371c-10.186 5.012-11.426 7.545-8.354 18.54 2.156 8.192 4.312 16.168 6.791 24.199 2.803 9.432 5.389 10.402 13.905 5.982 13.238-7.011 28.682-11.915 45.045-13.795l0.604-0.056c2.357-0.361 5.077-0.567 7.845-0.567 7.987 0 15.574 1.717 22.41 4.802l-0.344-0.139c9.013 3.514 15.283 12.126 15.283 22.201 0 7.917-3.871 14.931-9.824 19.25l-0.069 0.048c-4.859 4.071-10.47 7.466-16.558 9.929l-0.419 0.15c-18.307 6.923-33.666 14.175-48.363 22.462l1.744-0.904c-22.39 11.157-37.502 33.889-37.502 60.151 0 1.591 0.055 3.169 0.165 4.733l-0.012-0.211c0.946 31.131 21.92 57.118 50.431 65.571l0.499 0.127c12.342 4.689 12.665 4.419 12.665 17.624v13.528c0.323 10.078 1.832 11.641 11.749 11.965h8.947c20.965 0 20.965 0 20.965-21.558 0-15.091 0-15.091 14.821-17.3 12.139-2.062 22.997-5.455 33.167-10.094l-0.83 0.339c4.016-1.185 6.897-4.839 6.897-9.166 0-1.342-0.277-2.618-0.777-3.777l0.024 0.062c-2.479-9.108-4.958-18.54-8.030-27.379s-5.389-9.755-13.581-5.982c-13.071 6.685-28.512 10.602-44.868 10.602-2.228 0-4.438-0.073-6.63-0.216l0.298 0.016c-4.926-0.159-9.571-1.174-13.853-2.899l0.272 0.097c-7.868-2.809-13.398-10.196-13.398-18.875 0-6.711 3.306-12.65 8.379-16.277l0.061-0.041c6.412-4.989 13.726-9.309 21.563-12.639l0.641-0.242c16.172-6.259 29.588-12.599 42.49-19.751l-1.746 0.888c23.723-12.832 39.567-37.526 39.567-65.921 0-17.795-6.222-34.136-16.61-46.967l0.11 0.14z" />
<glyph unicode="&#xe924;" glyph-name="Group-1" d="M956.254 932.999h-868.568c-48.567-0.635-87.694-40.154-87.694-88.811 0-0.4 0.003-0.8 0.008-1.199l-0.001 0.061v-629.221c-0.005-0.339-0.007-0.738-0.007-1.139 0-48.658 39.127-88.177 87.634-88.811l0.060-0.001h116.628c-2.744 16.1-4.312 34.646-4.312 53.558 0 0.118 0 0.237 0 0.355v-0.019c0.052 21.329 2.010 42.165 5.714 62.391l-0.325-2.137h-94.154v301.218h821.248v-300.948h-94.262c3.379-18.089 5.338-38.925 5.389-60.21v-0.044c0-0.1 0-0.218 0-0.336 0-18.912-1.568-37.458-4.581-55.515l0.27 1.956h116.628c48.567 0.635 87.694 40.154 87.694 88.811 0 0.4-0.003 0.8-0.008 1.199l0.001-0.061v629.221c0.003 0.26 0.004 0.567 0.004 0.874 0 48.543-38.943 87.99-87.291 88.806l-0.076 0.001zM932.756 724.749h-821.517v94.316h821.248zM539.379 441.479c-1.379 0.028-3.005 0.043-4.635 0.043-136.503 0-247.161-110.658-247.161-247.161s110.658-247.161 247.161-247.161c136.503 0 247.161 110.658 247.161 247.161 0 0.004 0 0.007 0 0.011v0c0.006 0.66 0.010 1.44 0.010 2.221 0 134.423-108.303 243.551-242.41 244.885l-0.126 0.001zM609.118 96.93c-10.128-12.665-23.979-21.971-39.884-26.284l-0.537-0.124c-5.675-0.755-10.008-5.564-10.008-11.385 0-0.642 0.053-1.272 0.154-1.886l-0.009 0.067c0.323-7.222 0-14.444 0-21.989 0.065-0.401 0.102-0.864 0.102-1.335 0-4.852-3.933-8.785-8.785-8.785-0.302 0-0.6 0.015-0.894 0.045l0.037-0.003q-11.587-0.485-23.121 0c-6.791 0-9.863 4.096-9.863 10.779v16.168c0 11.641-0.593 12.288-11.749 14.12-15.274 2.108-29.099 6.304-41.888 12.335l0.874-0.371c-10.186 5.012-11.426 7.545-8.354 18.54 2.156 8.192 4.312 16.168 6.791 24.199 2.803 9.432 5.389 10.402 13.905 5.982 13.238-7.011 28.682-11.915 45.045-13.795l0.604-0.056c2.357-0.361 5.077-0.567 7.845-0.567 7.987 0 15.574 1.717 22.41 4.802l-0.344-0.139c9.013 3.514 15.283 12.126 15.283 22.201 0 7.917-3.871 14.931-9.824 19.25l-0.069 0.048c-4.859 4.071-10.47 7.466-16.558 9.929l-0.419 0.15c-18.307 6.923-33.666 14.175-48.363 22.462l1.744-0.904c-22.39 11.157-37.502 33.889-37.502 60.151 0 1.591 0.055 3.169 0.165 4.733l-0.012-0.211c0.946 31.131 21.92 57.118 50.431 65.571l0.499 0.127c12.342 4.689 12.665 4.419 12.665 17.624v13.528c0.323 10.078 1.832 11.641 11.749 11.965h8.947c20.965 0 20.965 0 20.965-21.558 0-15.091 0-15.091 14.821-17.3 12.139-2.062 22.997-5.455 33.167-10.094l-0.83 0.339c4.016-1.185 6.897-4.839 6.897-9.166 0-1.342-0.277-2.618-0.777-3.777l0.024 0.062c-2.479-9.108-4.958-18.54-8.030-27.379s-5.389-9.755-13.581-5.982c-13.071 6.685-28.512 10.602-44.868 10.602-2.228 0-4.438-0.073-6.63-0.216l0.298 0.016c-4.926-0.159-9.571-1.174-13.853-2.899l0.272 0.097c-7.868-2.809-13.398-10.196-13.398-18.875 0-6.711 3.306-12.65 8.379-16.277l0.061-0.041c6.412-4.989 13.726-9.309 21.563-12.639l0.641-0.242c16.172-6.259 29.588-12.599 42.49-19.751l-1.746 0.888c23.723-12.832 39.567-37.526 39.567-65.921 0-17.795-6.222-34.136-16.61-46.967l0.11 0.14z" />
<glyph unicode="&#xe925;" glyph-name="Group-2" d="M956.254 932.999h-868.568c-48.567-0.635-87.694-40.154-87.694-88.811 0-0.4 0.003-0.8 0.008-1.199l-0.001 0.061v-629.221c-0.005-0.339-0.007-0.738-0.007-1.139 0-48.658 39.127-88.177 87.634-88.811l0.060-0.001h116.628c-2.744 16.1-4.312 34.646-4.312 53.558 0 0.118 0 0.237 0 0.355v-0.019c0.052 21.329 2.010 42.165 5.714 62.391l-0.325-2.137h-94.154v301.218h821.248v-300.948h-94.262c3.379-18.089 5.338-38.925 5.389-60.21v-0.044c0-0.1 0-0.218 0-0.336 0-18.912-1.568-37.458-4.581-55.515l0.27 1.956h116.628c48.567 0.635 87.694 40.154 87.694 88.811 0 0.4-0.003 0.8-0.008 1.199l0.001-0.061v629.221c0.003 0.26 0.004 0.567 0.004 0.874 0 48.543-38.943 87.99-87.291 88.806l-0.076 0.001zM932.756 724.749h-821.517v94.316h821.248zM539.379 441.479c-1.379 0.028-3.005 0.043-4.635 0.043-136.503 0-247.161-110.658-247.161-247.161s110.658-247.161 247.161-247.161c136.503 0 247.161 110.658 247.161 247.161 0 0.004 0 0.007 0 0.011v0c0.006 0.66 0.010 1.44 0.010 2.221 0 134.423-108.303 243.551-242.41 244.885l-0.126 0.001zM609.118 96.93c-10.128-12.665-23.979-21.971-39.884-26.284l-0.537-0.124c-5.675-0.755-10.008-5.564-10.008-11.385 0-0.642 0.053-1.272 0.154-1.886l-0.009 0.067c0.323-7.222 0-14.444 0-21.989 0.065-0.401 0.102-0.864 0.102-1.335 0-4.852-3.933-8.785-8.785-8.785-0.302 0-0.6 0.015-0.894 0.045l0.037-0.003q-11.587-0.485-23.121 0c-6.791 0-9.863 4.096-9.863 10.779v16.168c0 11.641-0.593 12.288-11.749 14.12-15.274 2.108-29.099 6.304-41.888 12.335l0.874-0.371c-10.186 5.012-11.426 7.545-8.354 18.54 2.156 8.192 4.312 16.168 6.791 24.199 2.803 9.432 5.389 10.402 13.905 5.982 13.238-7.011 28.682-11.915 45.045-13.795l0.604-0.056c2.357-0.361 5.077-0.567 7.845-0.567 7.987 0 15.574 1.717 22.41 4.802l-0.344-0.139c9.013 3.514 15.283 12.126 15.283 22.201 0 7.917-3.871 14.931-9.824 19.25l-0.069 0.048c-4.859 4.071-10.47 7.466-16.558 9.929l-0.419 0.15c-18.307 6.923-33.666 14.175-48.363 22.462l1.744-0.904c-22.39 11.157-37.502 33.889-37.502 60.151 0 1.591 0.055 3.169 0.165 4.733l-0.012-0.211c0.946 31.131 21.92 57.118 50.431 65.571l0.499 0.127c12.342 4.689 12.665 4.419 12.665 17.624v13.528c0.323 10.078 1.832 11.641 11.749 11.965h8.947c20.965 0 20.965 0 20.965-21.558 0-15.091 0-15.091 14.821-17.3 12.139-2.062 22.997-5.455 33.167-10.094l-0.83 0.339c4.016-1.185 6.897-4.839 6.897-9.166 0-1.342-0.277-2.618-0.777-3.777l0.024 0.062c-2.479-9.108-4.958-18.54-8.030-27.379s-5.389-9.755-13.581-5.982c-13.071 6.685-28.512 10.602-44.868 10.602-2.228 0-4.438-0.073-6.63-0.216l0.298 0.016c-4.926-0.159-9.571-1.174-13.853-2.899l0.272 0.097c-7.868-2.809-13.398-10.196-13.398-18.875 0-6.711 3.306-12.65 8.379-16.277l0.061-0.041c6.412-4.989 13.726-9.309 21.563-12.639l0.641-0.242c16.172-6.259 29.588-12.599 42.49-19.751l-1.746 0.888c23.723-12.832 39.567-37.526 39.567-65.921 0-17.795-6.222-34.136-16.61-46.967l0.11 0.14z" />
<glyph unicode="&#xe926;" glyph-name="icon_add-user-1" d="M768.048-64.064v128.008h-128.008v128.008h128.008v128.008h128.008v-128.008h128.008v-128.008h-128.008v-128.008zM0-64.064v64.004c-0.010 0.937-0.016 2.044-0.016 3.152 0 175.010 141.874 316.884 316.884 316.884 1.108 0 2.215-0.006 3.321-0.017l-0.169 0.001h192.012v-128.008h-192.012c-0.641 0.008-1.399 0.012-2.158 0.012-82.077 0-151.766-53.036-176.668-126.706l-0.386-1.314h371.223v-128.008zM192.012 639.98v64.004c0.435 141.218 114.798 255.581 255.974 256.016h0.042c141.218-0.435 255.581-114.798 256.016-255.974v-64.046c-0.435-141.218-114.798-255.581-255.974-256.016h-0.042c-141.218 0.435-255.581 114.798-256.016 255.974v0.042zM320.020 703.984v-64.004c0.218-70.609 57.399-127.79 127.987-128.008h0.021c70.609 0.218 127.79 57.399 128.008 127.987v64.025c-0.218 70.609-57.399 127.79-127.987 128.008h-0.021c-70.609-0.218-127.79-57.399-128.008-127.987v-0.021z" />
<glyph unicode="&#xe927;" glyph-name="icon_alert-circle-exc" d="M512 960c-282.77 0-512-229.23-512-512s229.23-512 512-512c282.77 0 512 229.23 512 512v0c-0.87 282.419-229.581 511.13-511.917 512h-0.083zM512 192c-1.085-0.069-2.352-0.109-3.629-0.109-33.402 0-60.48 27.078-60.48 60.48 0 1.277 0.040 2.544 0.118 3.801l-0.009-0.172c-0.069 1.085-0.109 2.352-0.109 3.629 0 33.402 27.078 60.48 60.48 60.48 1.277 0 2.544-0.040 3.801-0.118l-0.172 0.009c1.085 0.069 2.352 0.109 3.629 0.109 33.402 0 60.48-27.078 60.48-60.48 0-1.277-0.040-2.544-0.118-3.801l0.009 0.172c0.069-1.085 0.109-2.352 0.109-3.629 0-33.402-27.078-60.48-60.48-60.48-1.277 0-2.544 0.040-3.801 0.118l0.172-0.009zM576 384h-128v320h128z" />
<glyph unicode="&#xe928;" glyph-name="icon_attached" horiz-adv-x="1020" d="M935.544 871.544c-57.154 53.73-133.938 87.155-218.515 88.453l-0.257 0.003c-84.984-0.381-162.038-34.020-218.882-88.561l0.11 0.105c-11.581-12.453-18.688-29.204-18.688-47.614 0-1.259 0.033-2.51 0.099-3.752l-0.007 0.174c1.309-19.379 8.087-36.954 18.785-51.461l-0.189 0.268c12.453-11.581 29.204-18.688 47.614-18.688 1.259 0 2.51 0.033 3.752 0.099l-0.174-0.007c19.397 1.273 37 8.029 51.534 18.715l-0.27-0.19c31.304 30.233 73.985 48.861 121.018 48.861s89.714-18.629 121.068-48.91l-0.051 0.049c25.15-31.79 40.732-72.165 41.854-116.135l0.005-0.251c-0.054-47.436-19.644-90.285-51.155-120.945l-0.038-0.037-404.947-404.877c-31.304-30.233-73.985-48.861-121.018-48.861s-89.714 18.629-121.068 48.91l0.051-0.049c-28.373 30.479-45.967 71.325-46.525 116.275l-0.001 0.111c0.074 47.445 19.688 90.295 51.224 120.943l0.040 0.039 172.104 172.246c9.063 8.634 21.358 13.946 34.895 13.946s25.832-5.312 34.915-13.966l-0.021 0.020c8.681-9.892 13.977-22.942 13.977-37.228s-5.296-27.336-14.032-37.292l0.055 0.064-125.578-125.72c-11.581-12.453-18.688-29.204-18.688-47.614 0-1.259 0.033-2.51 0.099-3.752l-0.007 0.174c1.309-19.379 8.087-36.954 18.785-51.461l-0.189 0.268c13.191-10.86 30.256-17.446 48.86-17.446s35.669 6.585 48.993 17.552l-0.133-0.106 125.366 125.649c34.541 34.547 55.904 82.27 55.904 134.982s-21.363 100.435-55.904 134.983v0c-33.85 34.488-80.957 55.864-133.056 55.864-0.454 0-0.907-0.002-1.359-0.005h0.070c-3.109 0.209-6.74 0.327-10.399 0.327-47.173 0-89.731-19.758-119.85-51.45l-0.067-0.071-172.529-172.175c-57.398-54.008-93.144-130.468-93.144-215.277 0-1.229 0.008-2.456 0.022-3.682l-0.002 0.187c0.381-84.984 34.020-162.038 88.561-218.882l-0.105 0.11c57.154-53.73 133.938-87.155 218.515-88.453l0.257-0.003c84.984 0.381 162.038 34.020 218.882 88.561l-0.11-0.105 404.877 405.23c54.671 54.118 88.524 129.178 88.524 212.144 0 2.231-0.024 4.456-0.073 6.675l0.006-0.331c0.18 3.919 0.283 8.515 0.283 13.134 0 81.562-32.026 155.643-84.188 210.356l0.115-0.122z" />
<glyph unicode="&#xe929;" glyph-name="icon_cart" d="M704.896 64c0 70.692 57.308 128 128 128v0c70.692 0 128-57.308 128-128v0c0-70.692-57.308-128-128-128v0c-70.692 0-128 57.308-128 128v0zM64.896 64c0 70.692 57.308 128 128 128v0c70.692 0 128-57.308 128-128v0c0-70.692-57.308-128-128-128v0c-70.692 0-128 57.308-128 128v0zM0 256v128h784.704l91.328 320h-747.136v128h-128v128h192c35.346 0 64-28.654 64-64v0-64h704c35.315-0.992 63.565-29.857 63.565-65.32 0-5.785-0.752-11.394-2.163-16.736l0.102 0.456-128-448c-7.907-27.009-32.455-46.4-61.532-46.4-0.012 0-0.025 0-0.037 0h0.002zM64 448v64h256v-64zM128 576v64h256v-64z" />
<glyph unicode="&#xe92a;" glyph-name="icon_cart-1" d="M704.896 64c0 70.692 57.308 128 128 128v0c70.692 0 128-57.308 128-128v0c0-70.692-57.308-128-128-128v0c-70.692 0-128 57.308-128 128v0zM64.896 64c0 70.692 57.308 128 128 128v0c70.692 0 128-57.308 128-128v0c0-70.692-57.308-128-128-128v0c-70.692 0-128 57.308-128 128v0zM0 256v128h784.704l91.328 320h-747.136v128h-128v128h192c35.346 0 64-28.654 64-64v0-64h704c35.315-0.992 63.565-29.857 63.565-65.32 0-5.785-0.752-11.394-2.163-16.736l0.102 0.456-128-448c-7.907-27.009-32.455-46.4-61.532-46.4-0.012 0-0.025 0-0.037 0h0.002zM64 448v64h256v-64zM128 576v64h256v-64z" />
<glyph unicode="&#xe92b;" glyph-name="icon_chat-notification" d="M723.693 70.984c-25.126-4.441-54.076-7-83.617-7.040h-0.036c-1.516-0.018-3.305-0.028-5.098-0.028-87.867 0-170.058 24.301-240.219 66.55l2.102-1.174c6.4 0 12.801-1.344 19.521-1.344 266.257 0 487.966 169.739 534.625 392.921 44.062-43.020 71.787-102.603 73.089-168.664l0.004-0.242c-1.002-62.052-25.469-118.203-64.888-160.135l0.116 0.125h0.768v-256.016zM64.004 420.958c-39.479 51.273-63.462 116.262-64.003 186.831l-0.001 0.125c0 194.444 186.252 352.022 416.026 352.022s416.026-157.578 416.026-352.022-186.252-352.022-416.026-352.022c-0.182 0-0.398 0-0.613 0-64.362 0-125.747 12.745-181.77 35.849l3.172-1.158-172.811-98.63z" />
<glyph unicode="&#xe92c;" glyph-name="icon_chat-room-1" d="M640 128h-320l116.992 128h395.008c35.346 0 64 28.654 64 64v0 384h64c35.346 0 64-28.654 64-64v0-448c0-35.346-28.654-64-64-64v0h-128v-192zM192 384h-128c-35.346 0-64 28.654-64 64v0 448c0 35.346 28.654 64 64 64v0h640c35.346 0 64-28.654 64-64v0-448c0-35.346-28.654-64-64-64v0h-320l-192-192z" />
<glyph unicode="&#xe92d;" glyph-name="icon_circle-remove" d="M512 960c-282.77 0-512-229.23-512-512s229.23-512 512-512c282.77 0 512 229.23 512 512v0c-0.87 282.419-229.581 511.13-511.917 512h-0.083zM736 313.6l-89.6-89.6-134.4 134.4-134.4-134.4-89.6 89.6 134.4 134.4-134.4 134.4 89.6 89.6 134.4-134.4 134.4 134.4 89.6-89.6-134.4-134.4z" />
<glyph unicode="&#xe92e;" glyph-name="icon_close" d="M109.722 960.072l914.306-914.306-109.696-109.696-914.306 914.306 109.696 109.696zM1024.072 850.35l-914.306-914.306-109.696 109.696 914.306 914.306 109.696-109.696z" />
<glyph unicode="&#xe92f;" glyph-name="icon_dashboard" d="M832-64c-1.085-0.069-2.352-0.109-3.629-0.109-33.402 0-60.48 27.078-60.48 60.48 0 1.277 0.040 2.544 0.118 3.801l-0.009-0.172v576c-0.069 1.085-0.109 2.352-0.109 3.629 0 33.402 27.078 60.48 60.48 60.48 1.277 0 2.544-0.040 3.801-0.118l-0.172 0.009h128c1.085 0.069 2.352 0.109 3.629 0.109 33.402 0 60.48-27.078 60.48-60.48 0-1.277-0.040-2.544-0.118-3.801l0.009 0.172v-576c0.069-1.085 0.109-2.352 0.109-3.629 0-33.402-27.078-60.48-60.48-60.48-1.277 0-2.544 0.040-3.801 0.118l0.172-0.009zM448-64c-1.105-0.072-2.396-0.113-3.697-0.113-33.367 0-60.416 27.049-60.416 60.416 0 1.301 0.041 2.592 0.122 3.872l-0.009-0.175v896c-0.069 1.085-0.109 2.352-0.109 3.629 0 33.402 27.078 60.48 60.48 60.48 1.277 0 2.544-0.040 3.801-0.118l-0.172 0.009h128c1.085 0.069 2.352 0.109 3.629 0.109 33.402 0 60.48-27.078 60.48-60.48 0-1.277-0.040-2.544-0.118-3.801l0.009 0.172v-896c0.072-1.105 0.113-2.396 0.113-3.697 0-33.367-27.049-60.416-60.416-60.416-1.301 0-2.592 0.041-3.872 0.122l0.175-0.009zM64-64c-1.085-0.069-2.352-0.109-3.629-0.109-33.402 0-60.48 27.078-60.48 60.48 0 1.277 0.040 2.544 0.118 3.801l-0.009-0.172v256c-0.069 1.085-0.109 2.352-0.109 3.629 0 33.402 27.078 60.48 60.48 60.48 1.277 0 2.544-0.040 3.801-0.118l-0.172 0.009h128c1.064 0.067 2.308 0.105 3.561 0.105 33.438 0 60.544-27.106 60.544-60.544 0-1.253-0.038-2.496-0.113-3.73l0.008 0.169v-256c0.069-1.085 0.109-2.352 0.109-3.629 0-33.402-27.078-60.48-60.48-60.48-1.277 0-2.544 0.040-3.801 0.118l0.172-0.009z" />
<glyph unicode="&#xe930;" glyph-name="icon_dashboard-1" d="M832-64c-1.085-0.069-2.352-0.109-3.629-0.109-33.402 0-60.48 27.078-60.48 60.48 0 1.277 0.040 2.544 0.118 3.801l-0.009-0.172v576c-0.069 1.085-0.109 2.352-0.109 3.629 0 33.402 27.078 60.48 60.48 60.48 1.277 0 2.544-0.040 3.801-0.118l-0.172 0.009h128c1.085 0.069 2.352 0.109 3.629 0.109 33.402 0 60.48-27.078 60.48-60.48 0-1.277-0.040-2.544-0.118-3.801l0.009 0.172v-576c0.069-1.085 0.109-2.352 0.109-3.629 0-33.402-27.078-60.48-60.48-60.48-1.277 0-2.544 0.040-3.801 0.118l0.172-0.009zM448-64c-1.105-0.072-2.396-0.113-3.697-0.113-33.367 0-60.416 27.049-60.416 60.416 0 1.301 0.041 2.592 0.122 3.872l-0.009-0.175v896c-0.069 1.085-0.109 2.352-0.109 3.629 0 33.402 27.078 60.48 60.48 60.48 1.277 0 2.544-0.040 3.801-0.118l-0.172 0.009h128c1.085 0.069 2.352 0.109 3.629 0.109 33.402 0 60.48-27.078 60.48-60.48 0-1.277-0.040-2.544-0.118-3.801l0.009 0.172v-896c0.072-1.105 0.113-2.396 0.113-3.697 0-33.367-27.049-60.416-60.416-60.416-1.301 0-2.592 0.041-3.872 0.122l0.175-0.009zM64-64c-1.085-0.069-2.352-0.109-3.629-0.109-33.402 0-60.48 27.078-60.48 60.48 0 1.277 0.040 2.544 0.118 3.801l-0.009-0.172v256c-0.069 1.085-0.109 2.352-0.109 3.629 0 33.402 27.078 60.48 60.48 60.48 1.277 0 2.544-0.040 3.801-0.118l-0.172 0.009h128c1.064 0.067 2.308 0.105 3.561 0.105 33.438 0 60.544-27.106 60.544-60.544 0-1.253-0.038-2.496-0.113-3.73l0.008 0.169v-256c0.069-1.085 0.109-2.352 0.109-3.629 0-33.402-27.078-60.48-60.48-60.48-1.277 0-2.544 0.040-3.801 0.118l0.172-0.009z" />
<glyph unicode="&#xe931;" glyph-name="icon_dashboard-2" d="M832-64c-1.085-0.069-2.352-0.109-3.629-0.109-33.402 0-60.48 27.078-60.48 60.48 0 1.277 0.040 2.544 0.118 3.801l-0.009-0.172v576c-0.069 1.085-0.109 2.352-0.109 3.629 0 33.402 27.078 60.48 60.48 60.48 1.277 0 2.544-0.040 3.801-0.118l-0.172 0.009h128c1.085 0.069 2.352 0.109 3.629 0.109 33.402 0 60.48-27.078 60.48-60.48 0-1.277-0.040-2.544-0.118-3.801l0.009 0.172v-576c0.069-1.085 0.109-2.352 0.109-3.629 0-33.402-27.078-60.48-60.48-60.48-1.277 0-2.544 0.040-3.801 0.118l0.172-0.009zM448-64c-1.105-0.072-2.396-0.113-3.697-0.113-33.367 0-60.416 27.049-60.416 60.416 0 1.301 0.041 2.592 0.122 3.872l-0.009-0.175v896c-0.069 1.085-0.109 2.352-0.109 3.629 0 33.402 27.078 60.48 60.48 60.48 1.277 0 2.544-0.040 3.801-0.118l-0.172 0.009h128c1.085 0.069 2.352 0.109 3.629 0.109 33.402 0 60.48-27.078 60.48-60.48 0-1.277-0.040-2.544-0.118-3.801l0.009 0.172v-896c0.072-1.105 0.113-2.396 0.113-3.697 0-33.367-27.049-60.416-60.416-60.416-1.301 0-2.592 0.041-3.872 0.122l0.175-0.009zM64-64c-1.085-0.069-2.352-0.109-3.629-0.109-33.402 0-60.48 27.078-60.48 60.48 0 1.277 0.040 2.544 0.118 3.801l-0.009-0.172v256c-0.069 1.085-0.109 2.352-0.109 3.629 0 33.402 27.078 60.48 60.48 60.48 1.277 0 2.544-0.040 3.801-0.118l-0.172 0.009h128c1.064 0.067 2.308 0.105 3.561 0.105 33.438 0 60.544-27.106 60.544-60.544 0-1.253-0.038-2.496-0.113-3.73l0.008 0.169v-256c0.069-1.085 0.109-2.352 0.109-3.629 0-33.402-27.078-60.48-60.48-60.48-1.277 0-2.544 0.040-3.801 0.118l0.172-0.009z" />
<glyph unicode="&#xe932;" glyph-name="icon_down-arrow-small-1" d="M512 122.182l-512 517.492 132.748 134.144 379.252-383.348 379.252 383.348 132.748-134.144z" />
<glyph unicode="&#xe933;" glyph-name="icon_edit" d="M521.85 763.080l-364.328-374.142-157.522-453.009 452.938 147.708 364.328 364.328zM984.602 792.593l-128.009 128.009c-21.938 24.22-53.505 39.37-88.611 39.37s-66.673-15.15-88.52-39.269l-0.090-0.101-108.31-108.31 295.416-305.23 118.124 118.124c23.76 22.294 38.771 53.669 39.467 88.555l0.002 0.126c-3.023 31.384-17.57 58.892-39.299 78.636l-0.1 0.089z" />
<glyph unicode="&#xe934;" glyph-name="icon_emoji" d="M512 960c-282.77 0-512-229.23-512-512s229.23-512 512-512c282.77 0 512 229.23 512 512v0c-0.841 282.43-229.569 511.158-511.919 512h-0.081zM320.027 618.69c35.341 0 63.991-28.65 63.991-63.991s-28.65-63.991-63.991-63.991c-35.341 0-63.991 28.65-63.991 63.991v0c0.884 34.98 29.011 63.107 63.908 63.99l0.083 0.002zM755.237 247.471c-61.123-60.679-145.328-98.18-238.292-98.18-1.739 0-3.474 0.013-5.207 0.039l0.261-0.003c-1.491-0.024-3.252-0.037-5.015-0.037-92.964 0-177.169 37.501-238.313 98.201l0.020-0.020c-6.108 7.299-9.818 16.787-9.818 27.142 0 23.431 18.994 42.425 42.425 42.425 10.355 0 19.843-3.71 27.208-9.872l-0.067 0.054c46.894-44.912 110.636-72.56 180.836-72.56 0.933 0 1.864 0.005 2.794 0.015l-0.142-0.001c0.809-0.009 1.765-0.014 2.722-0.014 70.2 0 133.942 27.649 180.931 72.651l-0.094-0.090c7.299 6.108 16.787 9.818 27.142 9.818 23.431 0 42.425-18.994 42.425-42.425 0-10.355-3.71-19.843-9.872-27.208l0.054 0.067zM704.044 490.708c-35.341 0-63.991 28.65-63.991 63.991s28.65 63.991 63.991 63.991c35.341 0 63.991-28.65 63.991-63.991v0c-0.847-35.034-29.027-63.215-63.982-64.060l-0.080-0.002z" />
<glyph unicode="&#xe935;" glyph-name="icon_help-center-1" d="M512 960c-282.77 0-512-229.23-512-512s229.23-512 512-512c282.77 0 512 229.23 512 512v0c-0.87 282.419-229.581 511.13-511.917 512h-0.083zM512 320c-70.692 0-128 57.308-128 128s57.308 128 128 128c70.692 0 128-57.308 128-128v0c-0.218-70.605-57.395-127.782-127.979-128h-0.021zM512 832c0.436 0.002 0.952 0.003 1.468 0.003 60.063 0 116.814-14.182 167.086-39.381l-2.154 0.978-99.584-99.584c-20 6.304-43 9.937-66.848 9.937s-46.848-3.632-68.476-10.374l1.628 0.437-99.52 99.584c48.118 24.221 104.869 38.403 164.932 38.403 0.516 0 1.032-0.001 1.547-0.003h-0.079zM128 448c-0.002 0.436-0.003 0.952-0.003 1.468 0 60.063 14.182 116.814 39.381 167.086l-0.978-2.154 99.584-99.584c-6.304-20-9.937-43-9.937-66.848s3.632-46.848 10.374-68.476l-0.437 1.628-99.584-99.52c-24.221 48.118-38.403 104.869-38.403 164.932 0 0.516 0.001 1.032 0.003 1.547v-0.079zM512 64c-0.436-0.002-0.952-0.003-1.468-0.003-60.063 0-116.814 14.182-167.086 39.381l2.154-0.978 99.584 99.584c20-6.304 43-9.937 66.848-9.937s46.848 3.632 68.476 10.374l-1.628-0.437 99.52-99.584c-48.118-24.221-104.869-38.403-164.932-38.403-0.516 0-1.032 0.001-1.547 0.003h0.079zM857.6 281.6l-99.584 99.584c6.304 20 9.937 43 9.937 66.848s-3.632 46.848-10.374 68.476l0.437-1.628 99.584 99.52c24.225-48.589 38.402-105.839 38.402-166.4s-14.178-117.811-39.395-168.611l0.993 2.211z" />
<glyph unicode="&#xe936;" glyph-name="icon_home" d="M997.184 628.096l-448 320c-10.326 7.447-23.234 11.91-37.184 11.91s-26.858-4.463-37.373-12.040l0.189 0.13-448-320c-16.32-11.751-26.821-30.697-26.821-52.096 0-35.349 28.656-64.005 64.005-64.005 13.95 0 26.858 4.463 37.373 12.039l-0.189-0.13 26.816 19.136v-543.040c0-35.346 28.654-64 64-64v0h640c35.346 0 64 28.654 64 64v0 543.040c16.708-16.681 38.815-27.959 63.474-30.987l0.526-0.053c0.022 0 0.047 0 0.073 0 35.346 0 64 28.654 64 64 0 21.4-10.503 40.346-26.635 51.966l-0.19 0.13zM768 64h-128v192c0 70.692-57.308 128-128 128s-128-57.308-128-128v0-192h-128v570.496l256 182.848 256-182.848z" />
<glyph unicode="&#xe937;" glyph-name="icon_home-1" d="M997.184 628.096l-448 320c-10.326 7.447-23.234 11.91-37.184 11.91s-26.858-4.463-37.373-12.040l0.189 0.13-448-320c-16.32-11.751-26.821-30.697-26.821-52.096 0-35.349 28.656-64.005 64.005-64.005 13.95 0 26.858 4.463 37.373 12.039l-0.189-0.13 26.816 19.136v-543.040c0-35.346 28.654-64 64-64v0h640c35.346 0 64 28.654 64 64v0 543.040c16.708-16.681 38.815-27.959 63.474-30.987l0.526-0.053c0.022 0 0.047 0 0.073 0 35.346 0 64 28.654 64 64 0 21.4-10.503 40.346-26.635 51.966l-0.19 0.13zM768 64h-128v192c0 70.692-57.308 128-128 128s-128-57.308-128-128v0-192h-128v570.496l256 182.848 256-182.848z" />
<glyph unicode="&#xe938;" glyph-name="icon_inbox" d="M960 896h-896c-35.346 0-64-28.654-64-64v0-768c0-35.346 28.654-64 64-64v0h896c35.346 0 64 28.654 64 64v0 768c0 35.346-28.654 64-64 64v0zM896 128h-768v401.728l352-201.28c9.118-5.299 20.066-8.427 31.744-8.427s22.626 3.128 32.051 8.592l-0.307-0.164 352.512 201.28zM896 677.12l-384-219.456-384 219.456v90.88h768z" />
<glyph unicode="&#xe939;" glyph-name="icon_inbox-1" d="M960 896h-896c-35.346 0-64-28.654-64-64v0-768c0-35.346 28.654-64 64-64v0h896c35.346 0 64 28.654 64 64v0 768c0 35.346-28.654 64-64 64v0zM896 128h-768v401.728l352-201.28c9.118-5.299 20.066-8.427 31.744-8.427s22.626 3.128 32.051 8.592l-0.307-0.164 352.512 201.28zM896 677.12l-384-219.456-384 219.456v90.88h768z" />
<glyph unicode="&#xe93a;" glyph-name="icon_inbox-2" d="M960 896h-896c-35.346 0-64-28.654-64-64v0-768c0-35.346 28.654-64 64-64v0h896c35.346 0 64 28.654 64 64v0 768c0 35.346-28.654 64-64 64v0zM896 128h-768v401.728l352-201.28c9.118-5.299 20.066-8.427 31.744-8.427s22.626 3.128 32.051 8.592l-0.307-0.164 352.512 201.28zM896 677.12l-384-219.456-384 219.456v90.88h768z" />
<glyph unicode="&#xe93b;" glyph-name="icon_Invoices-1" d="M896 960h-768c-1.085 0.069-2.352 0.109-3.629 0.109-33.402 0-60.48-27.078-60.48-60.48 0-1.277 0.040-2.544 0.118-3.801l-0.009 0.172v-960l192 128 128-128 128 128 128-128 128 128 192-128v960c0.069 1.085 0.109 2.352 0.109 3.629 0 33.402-27.078 60.48-60.48 60.48-1.277 0-2.544-0.040-3.801-0.118l0.172 0.009zM768 320h-512v128h512zM768 576h-512v128h512z" />
<glyph unicode="&#xe93c;" glyph-name="icon_lock-open" d="M64 0c-0.069-1.085-0.109-2.352-0.109-3.629 0-33.402 27.078-60.48 60.48-60.48 1.277 0 2.544 0.040 3.801 0.118l-0.172-0.009h768c1.085-0.069 2.352-0.109 3.629-0.109 33.402 0 60.48 27.078 60.48 60.48 0 1.277-0.040 2.544-0.118 3.801l0.009-0.172v576c0.069 1.085 0.109 2.352 0.109 3.629 0 33.402-27.078 60.48-60.48 60.48-1.277 0-2.544-0.040-3.801-0.118l0.172 0.009h-512v64c0.218 70.605 57.395 127.782 127.979 128h0.021c1.414 0.062 3.072 0.098 4.739 0.098 37.037 0 69.991-17.478 91.066-44.636l0.196-0.262 44.8-44.8 96 83.2-44.8 51.2c-48.99 49.969-116.655 81.472-191.679 83.194l-0.321 0.006c-141.209-0.435-255.565-114.791-256-255.958v-64.042h-128c-1.085 0.069-2.352 0.109-3.629 0.109-33.402 0-60.48-27.078-60.48-60.48 0-1.277 0.040-2.544 0.118-3.801l-0.009 0.172zM512 448c70.605-0.218 127.782-57.395 128-127.979v-0.021c0-0.101 0-0.22 0-0.339 0-46.447-25.557-86.926-63.376-108.139l-0.624-0.322v-83.2h-128v83.2c-38.443 21.535-64 62.014-64 108.461 0 0.119 0 0.238 0.001 0.358v-0.018c0.218 70.605 57.395 127.782 127.979 128h0.021z" />
<glyph unicode="&#xe93d;" glyph-name="icon_media" d="M938.655 960h-853.31c-47.086-0.12-85.225-38.259-85.345-85.334v-853.322c0.12-47.086 38.259-85.225 85.334-85.345h853.322c47.086 0.12 85.225 38.259 85.345 85.334v853.322c-0.12 47.086-38.259 85.225-85.334 85.345h-0.012zM170.69 63.982h-85.345v85.345h85.345zM170.69 277.31h-85.345v85.345h85.345zM170.69 533.345h-85.345v85.345h85.345zM170.69 746.673h-85.345v85.345h85.345zM768.035 106.69h-512v298.602h512zM768.035 490.708h-512v298.602h512zM938.726 64.053h-85.416v85.274h85.345zM938.726 277.38h-85.416v85.274h85.345zM938.726 533.416h-85.416v85.274h85.345zM938.726 746.743h-85.416v85.274h85.345z" />
<glyph unicode="&#xe93e;" d="M311.652 25.043h178.087c-0.151-49.116-39.927-88.892-89.029-89.043h-0.014c-49.116 0.151-88.892 39.927-89.043 89.029v0.014zM89.043 69.565c-0.755-0.048-1.636-0.076-2.525-0.076-23.236 0-42.073 18.837-42.073 42.073 0 0.888 0.028 1.77 0.082 2.644l-0.006-0.12c-0.048 0.755-0.076 1.636-0.076 2.525 0 23.236 18.837 42.073 42.073 42.073 0.888 0 1.77-0.028 2.644-0.082l-0.12 0.006h22.261c38.017 32.926 63.014 80.003 66.748 132.951l0.035 0.615v133.565c-0.007 0.638-0.010 1.392-0.010 2.148 0 121.763 98.709 220.472 220.472 220.472 0.755 0 1.509-0.004 2.263-0.011l-0.115 0.001c0.652 0.007 1.422 0.011 2.192 0.011 121.739 0 220.427-98.689 220.427-220.427 0-0.771-0.004-1.541-0.012-2.31l0.001 0.117v-133.565c3.753-53.566 28.754-100.648 66.539-133.359l0.244-0.206h22.261c0.755 0.048 1.636 0.076 2.525 0.076 23.236 0 42.073-18.837 42.073-42.073 0-0.888-0.028-1.77-0.082-2.644l0.006 0.12c0.048-0.755 0.076-1.636 0.076-2.525 0-23.236-18.837-42.073-42.073-42.073-0.888 0-1.77 0.028-2.644 0.082l0.12-0.006z" />
<glyph unicode="&#xe93f;" d="M890.435 692.87c0-98.355-79.732-178.087-178.087-178.087s-178.087 79.732-178.087 178.087c0 98.355 79.732 178.087 178.087 178.087s178.087-79.732 178.087-178.087z" />
<glyph unicode="&#xe940;" d="M934.957 692.87c0-122.943-99.665-222.609-222.609-222.609s-222.609 99.665-222.609 222.609c0 122.943 99.665 222.609 222.609 222.609s222.609-99.665 222.609-222.609z" />
<glyph unicode="&#xe941;" d="M311.652 25.043h178.087c-0.151-49.116-39.927-88.892-89.029-89.043h-0.014c-49.116 0.151-88.892 39.927-89.043 89.029v0.014zM89.043 69.565c-0.755-0.048-1.636-0.076-2.525-0.076-23.236 0-42.073 18.837-42.073 42.073 0 0.888 0.028 1.77 0.082 2.644l-0.006-0.12c-0.048 0.755-0.076 1.636-0.076 2.525 0 23.236 18.837 42.073 42.073 42.073 0.888 0 1.77-0.028 2.644-0.082l-0.12 0.006h22.261c38.017 32.926 63.014 80.003 66.748 132.951l0.035 0.615v133.565c-0.007 0.638-0.010 1.392-0.010 2.148 0 121.763 98.709 220.472 220.472 220.472 0.755 0 1.509-0.004 2.263-0.011l-0.115 0.001c0.652 0.007 1.422 0.011 2.192 0.011 121.739 0 220.427-98.689 220.427-220.427 0-0.771-0.004-1.541-0.012-2.31l0.001 0.117v-133.565c3.753-53.566 28.754-100.648 66.539-133.359l0.244-0.206h22.261c0.755 0.048 1.636 0.076 2.525 0.076 23.236 0 42.073-18.837 42.073-42.073 0-0.888-0.028-1.77-0.082-2.644l0.006 0.12c0.048-0.755 0.076-1.636 0.076-2.525 0-23.236-18.837-42.073-42.073-42.073-0.888 0-1.77 0.028-2.644 0.082l0.12-0.006z" />
<glyph unicode="&#xe942;" d="M890.435 692.87c0-98.355-79.732-178.087-178.087-178.087s-178.087 79.732-178.087 178.087c0 98.355 79.732 178.087 178.087 178.087s178.087-79.732 178.087-178.087z" />
<glyph unicode="&#xe943;" d="M934.957 692.87c0-122.943-99.665-222.609-222.609-222.609s-222.609 99.665-222.609 222.609c0 122.943 99.665 222.609 222.609 222.609s222.609-99.665 222.609-222.609z" />
<glyph unicode="&#xe944;" glyph-name="icon_process" d="M806.4 127.936c-80.478-79.141-190.948-128.001-312.829-128.001-0.271 0-0.542 0-0.813 0.001h0.042c-2.195-0.040-4.785-0.063-7.379-0.063-119.81 0-228.18 48.983-306.174 128.016l-0.046 0.047c-64.259 63.413-108.221 147.253-121.345 240.979l-0.255 2.221 128 19.2c13.551-67.706 45.227-126.503 89.717-172.923l-0.117 0.123c57.753-56.385 136.815-91.168 224-91.168s166.247 34.783 224.064 91.23l-0.064-0.062-134.4 134.4 409.6 44.8-51.2-409.6zM44.8 895.936l140.8-140.8c81.509 80.123 193.378 129.587 316.8 129.587s235.29-49.464 316.864-129.65l-0.064 0.062c64.224-63.436 108.176-147.264 121.343-240.971l0.257-2.229-128-19.2c-13.532 67.711-45.212 126.512-89.716 172.921l0.116-0.121c-57.753 56.385-136.815 91.168-224 91.168s-166.247-34.783-224.064-91.23l0.064 0.062 134.4-134.4-409.6-44.8z" />
<glyph unicode="&#xe945;" glyph-name="icon_search" d="M812.8 241.28c55.905 72.289 89.611 164.215 89.611 264.014 0 1.097-0.004 2.194-0.012 3.289l0.001-0.168c0.004 0.685 0.006 1.495 0.006 2.306 0 247.682-200.424 448.553-447.936 449.278h-0.069c-249.9-0.176-452.623-201.91-454.399-451.415l-0.001-0.169c1.777-249.674 204.5-451.408 454.383-451.584h0.017c2.336-0.046 5.090-0.072 7.851-0.072 98.72 0 189.61 33.526 261.906 89.813l-0.957-0.717 192-190.784c11.325-11.767 27.209-19.076 44.8-19.076s33.475 7.309 44.781 19.056l0.019 0.020c11.82 11.19 19.177 26.992 19.177 44.512s-7.356 33.322-19.148 44.486l-0.028 0.026zM454.4 190.080c-1.489-0.025-3.246-0.039-5.006-0.039-176.442 0-319.678 142.175-321.392 318.212l-0.001 0.163c0 180.266 146.134 326.4 326.4 326.4s326.4-146.134 326.4-326.4v0c-1.895-176.061-145.061-318.055-321.391-318.055-1.761 0-3.519 0.014-5.274 0.042l0.264-0.003z" />
<glyph unicode="&#xe946;" glyph-name="icon_search-1" d="M812.8 241.28c55.905 72.289 89.611 164.215 89.611 264.014 0 1.097-0.004 2.194-0.012 3.289l0.001-0.168c0.004 0.685 0.006 1.495 0.006 2.306 0 247.682-200.424 448.553-447.936 449.278h-0.069c-249.9-0.176-452.623-201.91-454.399-451.415l-0.001-0.169c1.777-249.674 204.5-451.408 454.383-451.584h0.017c2.336-0.046 5.090-0.072 7.851-0.072 98.72 0 189.61 33.526 261.906 89.813l-0.957-0.717 192-190.784c11.325-11.767 27.209-19.076 44.8-19.076s33.475 7.309 44.781 19.056l0.019 0.020c11.82 11.19 19.177 26.992 19.177 44.512s-7.356 33.322-19.148 44.486l-0.028 0.026zM454.4 190.080c-1.489-0.025-3.246-0.039-5.006-0.039-176.442 0-319.678 142.175-321.392 318.212l-0.001 0.163c0 180.266 146.134 326.4 326.4 326.4s326.4-146.134 326.4-326.4v0c-1.895-176.061-145.061-318.055-321.391-318.055-1.761 0-3.519 0.014-5.274 0.042l0.264-0.003z" />
<glyph unicode="&#xe947;" glyph-name="icon_setting" d="M851.2 627.2l70.4 134.4-89.6 89.6-134.4-70.4c-20.309 11.661-43.91 20.555-68.962 25.37l-1.438 0.23-51.2 153.6h-128l-51.2-147.2c-24.308-6.335-45.598-15.096-65.325-26.292l1.325 0.692-134.4 70.4-96-96 70.4-134.4c-10.504-18.401-19.265-39.691-25.182-62.136l-0.418-1.864-147.2-51.2v-128l147.2-51.2c6.4-25.6 19.2-44.8 25.6-70.4l-70.4-134.4 89.6-89.6 134.4 70.4c20.309-11.661 43.91-20.555 68.962-25.37l1.438-0.23 51.2-147.2h128l51.2 147.2c25.6 6.4 44.8 19.2 70.4 25.6l134.4-70.4 89.6 89.6-70.4 134.4c11.661 20.309 20.555 43.91 25.37 68.962l0.23 1.438 147.2 51.2v128l-147.2 51.2c-6.335 24.308-15.096 45.598-26.292 65.325l0.692-1.325zM512 256c-1.038-0.021-2.262-0.032-3.488-0.032-104.13 0-188.544 84.414-188.544 188.544 0 1.227 0.012 2.45 0.035 3.671l-0.003-0.183c-0.021 1.038-0.032 2.262-0.032 3.488 0 104.13 84.414 188.544 188.544 188.544 1.227 0 2.45-0.012 3.671-0.035l-0.183 0.003c1.038 0.021 2.262 0.032 3.488 0.032 104.13 0 188.544-84.414 188.544-188.544 0-1.227-0.012-2.45-0.035-3.671l0.003 0.183c0.021-1.038 0.032-2.262 0.032-3.488 0-104.13-84.414-188.544-188.544-188.544-1.227 0-2.45 0.012-3.671 0.035l0.183-0.003z" />
<glyph unicode="&#xe948;" glyph-name="icon_star-1" horiz-adv-x="1022" d="M1004.557 517.721c11.127 10.959 18.021 26.189 18.021 43.029 0 28.881-20.277 53.026-47.372 58.975l-0.4 0.074-280.7 42.518-118.944 259.382c-9.617 22.681-31.696 38.301-57.422 38.301s-47.805-15.62-57.269-37.894l-0.154-0.407-127.729-259.382-284.916-42.518c-27.495-6.023-47.772-30.168-47.772-59.049 0-16.84 6.894-32.070 18.014-43.021l0.008-0.007 204.097-212.648v-4.275l-46.852-284.916c-0.819-3.9-1.288-8.382-1.288-12.973 0-36.452 29.55-66.002 66.002-66.002 10.552 0 20.526 2.476 29.372 6.879l-0.383-0.173 238.182 136.104h4.275l238.182-131.829c8.463-4.23 18.436-6.707 28.989-6.707 36.452 0 66.002 29.55 66.002 66.002 0 4.591-0.469 9.073-1.361 13.4l0.074-0.427-46.852 284.916v4.275z" />
<glyph unicode="&#xe949;" glyph-name="icon_time-countdown" d="M0 384.028c-0.005 0.82-0.009 1.79-0.009 2.761 0 245.919 199.357 445.276 445.276 445.276 0.971 0 1.941-0.003 2.91-0.009l-0.15 0.001c0.984 0.008 2.147 0.013 3.311 0.013 100.287 0 192.703-33.696 266.545-90.385l-1.040 0.767 57.604 57.604-51.203 51.203c-11.851 11.286-19.22 27.184-19.22 44.803s7.37 33.517 19.195 44.779l0.025 0.024c11.302 11.817 27.194 19.163 44.803 19.163s33.501-7.346 44.781-19.14l0.022-0.023 192.012-192.012c11.834-11.294 19.192-27.189 19.192-44.803s-7.358-33.509-19.167-44.78l-0.024-0.023c-10.713-11.825-26.126-19.221-43.267-19.221-0.54 0-1.078 0.007-1.615 0.022l0.079-0.002c-0.449-0.012-0.978-0.019-1.508-0.019-17.15 0-32.572 7.396-43.251 19.172l-0.044 0.049-51.203 51.203-57.604-57.604c55.922-72.817 89.618-165.248 89.618-265.549 0-1.149-0.004-2.297-0.013-3.444l0.001 0.176c0.005-0.82 0.009-1.79 0.009-2.761 0-245.919-199.357-445.276-445.276-445.276-0.971 0-1.941 0.003-2.91 0.009l0.15-0.001c-0.82-0.005-1.79-0.009-2.761-0.009-245.919 0-445.276 199.357-445.276 445.276 0 0.971 0.003 1.941 0.009 2.91l-0.001-0.15zM128.008 384.028c-0.010-0.918-0.015-2.002-0.015-3.087 0-175.045 141.902-316.948 316.948-316.948 1.085 0 2.17 0.005 3.253 0.016l-0.165-0.001c0.898-0.009 1.96-0.014 3.023-0.014 175.081 0 317.012 141.931 317.012 317.012 0 1.063-0.005 2.124-0.016 3.185l0.001-0.162c0.010 0.937 0.016 2.044 0.016 3.152 0 175.010-141.874 316.884-316.884 316.884-1.108 0-2.215-0.006-3.321-0.017l0.169 0.001c-0.937 0.010-2.044 0.016-3.152 0.016-175.010 0-316.884-141.874-316.884-316.884 0-1.108 0.006-2.215 0.017-3.321l-0.001 0.169zM384.024 320.024v256.016h128.008v-128.008h128.008v-128.008z" />
<glyph unicode="&#xe94a;" glyph-name="icon_trend-up" d="M556.8 576h230.4l-230.4-230.4-256 256-300.8-300.8 89.6-89.6 211.2 211.2 256-256 320 320v-230.4h128v448h-448z" />
<glyph unicode="&#xe94b;" glyph-name="import" d="M833.28 684.096h-169.984v-101.248h169.984c50.56 0 89.6-25.6 89.6-48.192v-449.088c0-22.272-39.232-48.256-89.6-48.256h-642.624c-50.56 0-89.6 25.92-89.6 48.256v449.024c0 22.336 39.232 48.256 89.6 48.256h169.984v101.184h-169.984c-106.88 0-190.656-65.664-190.656-149.44v-449.024c0-83.84 83.776-149.504 190.656-149.504h642.688c106.88 0 190.656 65.664 190.656 149.504v449.024c0 83.84-83.776 149.504-190.72 149.504zM664.64 472.448c-0.005 0-0.011 0-0.017 0-13.931 0-26.536-5.677-35.628-14.845l-0.003-0.003-63.168-63.36v515.136c0 27.853-22.579 50.432-50.432 50.432s-50.432-22.579-50.432-50.432v0-518.4l-66.56 66.816c-9.104 9.165-21.713 14.838-35.648 14.838s-26.544-5.673-35.645-14.836l-0.003-0.003c-9.118-9.173-14.754-21.816-14.754-35.776s5.636-26.603 14.757-35.778l-0.002 0.002 150.592-151.168c9.089-9.132 21.668-14.784 35.567-14.784 0.028 0 0.057 0 0.085 0h0.764c0.032 0 0.069 0 0.107 0 13.891 0 26.462 5.652 35.538 14.782l0.002 0.002 150.592 151.168c9.118 9.173 14.754 21.816 14.754 35.776s-5.636 26.603-14.757 35.778l0.002-0.002c-9.076 9.057-21.604 14.657-35.44 14.657-0.096 0-0.191 0-0.286-0.001h0.015z" />
<glyph unicode="&#xe94c;" glyph-name="import-1" d="M833.28 684.096h-169.984v-101.248h169.984c50.56 0 89.6-25.6 89.6-48.192v-449.088c0-22.272-39.232-48.256-89.6-48.256h-642.624c-50.56 0-89.6 25.92-89.6 48.256v449.024c0 22.336 39.232 48.256 89.6 48.256h169.984v101.184h-169.984c-106.88 0-190.656-65.664-190.656-149.44v-449.024c0-83.84 83.776-149.504 190.656-149.504h642.688c106.88 0 190.656 65.664 190.656 149.504v449.024c0 83.84-83.776 149.504-190.72 149.504zM664.64 472.448c-0.005 0-0.011 0-0.017 0-13.931 0-26.536-5.677-35.628-14.845l-0.003-0.003-63.168-63.36v515.136c0 27.853-22.579 50.432-50.432 50.432s-50.432-22.579-50.432-50.432v0-518.4l-66.56 66.816c-9.104 9.165-21.713 14.838-35.648 14.838s-26.544-5.673-35.645-14.836l-0.003-0.003c-9.118-9.173-14.754-21.816-14.754-35.776s5.636-26.603 14.757-35.778l-0.002 0.002 150.592-151.168c9.089-9.132 21.668-14.784 35.567-14.784 0.028 0 0.057 0 0.085 0h0.764c0.032 0 0.069 0 0.107 0 13.891 0 26.462 5.652 35.538 14.782l0.002 0.002 150.592 151.168c9.118 9.173 14.754 21.816 14.754 35.776s-5.636 26.603-14.757 35.778l0.002-0.002c-9.076 9.057-21.604 14.657-35.44 14.657-0.096 0-0.191 0-0.286-0.001h0.015z" />
<glyph unicode="&#xe94d;" glyph-name="Path--1" horiz-adv-x="905" d="M12.47 939.037v-981.877l867.391 494.719z" />
<glyph unicode="&#xe94e;" glyph-name="Path--4" horiz-adv-x="905" d="M12.47 939.037v-981.877l867.391 494.719z" />
<glyph unicode="&#xe94f;" glyph-name="Path--5" horiz-adv-x="905" d="M12.47 939.037v-981.877l867.391 494.719z" />
<glyph unicode="&#xe950;" glyph-name="Path--6" horiz-adv-x="1022" d="M1004.595 517.734c11.119 10.955 18.007 26.178 18.007 43.009 0 28.872-20.269 53.010-47.355 58.959l-0.4 0.074-280.678 42.547-119.142 259.379c-9.627 22.668-31.701 38.277-57.421 38.277s-47.794-15.609-57.267-37.87l-0.154-0.407-127.59-259.379-284.928-42.547c-27.485-6.023-47.754-30.161-47.754-59.033 0-16.831 6.888-32.053 18-43.001l0.007-0.007 204.134-212.634v-4.25l-46.899-284.979c-0.813-3.886-1.278-8.351-1.278-12.925 0-36.449 29.548-65.997 65.997-65.997 10.488 0 20.404 2.446 29.209 6.799l-0.386-0.173 238.131 136.090h4.25l238.131-131.84c8.42-4.181 18.336-6.627 28.824-6.627 36.449 0 65.997 29.548 65.997 65.997 0 4.574-0.465 9.039-1.351 13.351l0.073-0.426-46.797 284.928v4.25z" />
<glyph unicode="&#xe951;" glyph-name="Path--8" horiz-adv-x="1022" d="M1004.595 517.734c11.119 10.955 18.007 26.178 18.007 43.009 0 28.872-20.269 53.010-47.355 58.959l-0.4 0.074-280.678 42.547-119.142 259.379c-9.627 22.668-31.701 38.277-57.421 38.277s-47.794-15.609-57.267-37.87l-0.154-0.407-127.59-259.379-284.928-42.547c-27.485-6.023-47.754-30.161-47.754-59.033 0-16.831 6.888-32.053 18-43.001l0.007-0.007 204.134-212.634v-4.25l-46.899-284.979c-0.813-3.886-1.278-8.351-1.278-12.925 0-36.449 29.548-65.997 65.997-65.997 10.488 0 20.404 2.446 29.209 6.799l-0.386-0.173 238.131 136.090h4.25l238.131-131.84c8.42-4.181 18.336-6.627 28.824-6.627 36.449 0 65.997 29.548 65.997 65.997 0 4.574-0.465 9.039-1.351 13.351l0.073-0.426-46.797 284.928v4.25z" />
<glyph unicode="&#xe952;" glyph-name="Path--9" horiz-adv-x="1022" d="M1004.595 517.734c11.119 10.955 18.007 26.178 18.007 43.009 0 28.872-20.269 53.010-47.355 58.959l-0.4 0.074-280.678 42.547-119.142 259.379c-9.627 22.668-31.701 38.277-57.421 38.277s-47.794-15.609-57.267-37.87l-0.154-0.407-127.59-259.379-284.928-42.547c-27.485-6.023-47.754-30.161-47.754-59.033 0-16.831 6.888-32.053 18-43.001l0.007-0.007 204.134-212.634v-4.25l-46.899-284.979c-0.813-3.886-1.278-8.351-1.278-12.925 0-36.449 29.548-65.997 65.997-65.997 10.488 0 20.404 2.446 29.209 6.799l-0.386-0.173 238.131 136.090h4.25l238.131-131.84c8.42-4.181 18.336-6.627 28.824-6.627 36.449 0 65.997 29.548 65.997 65.997 0 4.574-0.465 9.039-1.351 13.351l0.073-0.426-46.797 284.928v4.25z" />
<glyph unicode="&#xe953;" glyph-name="Path-362" horiz-adv-x="1022" d="M1004.595 517.734c11.119 10.955 18.007 26.178 18.007 43.009 0 28.872-20.269 53.010-47.355 58.959l-0.4 0.074-280.678 42.547-119.142 259.379c-9.627 22.668-31.701 38.277-57.421 38.277s-47.794-15.609-57.267-37.87l-0.154-0.407-127.59-259.379-284.928-42.547c-27.485-6.023-47.754-30.161-47.754-59.033 0-16.831 6.888-32.053 18-43.001l0.007-0.007 204.134-212.634v-4.25l-46.899-284.979c-0.813-3.886-1.278-8.351-1.278-12.925 0-36.449 29.548-65.997 65.997-65.997 10.488 0 20.404 2.446 29.209 6.799l-0.386-0.173 238.131 136.090h4.25l238.131-131.84c8.42-4.181 18.336-6.627 28.824-6.627 36.449 0 65.997 29.548 65.997 65.997 0 4.574-0.465 9.039-1.351 13.351l0.073-0.426-46.797 284.928v4.25z" />
<glyph unicode="&#xe954;" glyph-name="Path-447" d="M846.694 417.28v460.237h-687.411v-859.034h316.109c22.777 0 41.242-18.464 41.242-41.242s-18.464-41.242-41.242-41.242v0h-357.376c-22.728 0.087-41.129 18.488-41.216 41.208v941.576c0.087 22.728 18.488 41.129 41.208 41.216h769.646c22.728-0.087 41.129-18.488 41.216-41.208v-501.768c0.075-0.933 0.118-2.019 0.118-3.115 0-22.763-18.453-41.216-41.216-41.216s-41.216 18.453-41.216 41.216c0 1.187 0.050 2.362 0.148 3.523l-0.010-0.152zM695.347 719.36h-370.893c-22.777 0-41.242-18.464-41.242-41.242s18.464-41.242 41.242-41.242h371.098c22.777 0 41.242 18.464 41.242 41.242s-18.464 41.242-41.242 41.242v0zM736.563 451.328c-0.087 22.728-18.488 41.129-41.208 41.216h-370.901c-22.777 0-41.242-18.464-41.242-41.242s18.464-41.242 41.242-41.242v0h371.098c22.693 0.203 41.011 18.646 41.011 41.368 0 0.001 0 0.001 0 0.002v0zM324.454 272.742c-22.777 0-41.242-18.464-41.242-41.242s18.464-41.242 41.242-41.242v0h109.978c22.777 0 41.242 18.464 41.242 41.242s-18.464 41.242-41.242 41.242v0z" />
<glyph unicode="&#xe955;" glyph-name="Path-453" d="M846.694 417.28v460.237h-687.411v-859.034h316.109c22.777 0 41.242-18.464 41.242-41.242s-18.464-41.242-41.242-41.242v0h-357.376c-22.728 0.087-41.129 18.488-41.216 41.208v941.576c0.087 22.728 18.488 41.129 41.208 41.216h769.646c22.728-0.087 41.129-18.488 41.216-41.208v-501.768c0.075-0.933 0.118-2.019 0.118-3.115 0-22.763-18.453-41.216-41.216-41.216s-41.216 18.453-41.216 41.216c0 1.187 0.050 2.362 0.148 3.523l-0.010-0.152zM695.347 719.36h-370.893c-22.777 0-41.242-18.464-41.242-41.242s18.464-41.242 41.242-41.242h371.098c22.777 0 41.242 18.464 41.242 41.242s-18.464 41.242-41.242 41.242v0zM736.563 451.328c-0.087 22.728-18.488 41.129-41.208 41.216h-370.901c-22.777 0-41.242-18.464-41.242-41.242s18.464-41.242 41.242-41.242v0h371.098c22.693 0.203 41.011 18.646 41.011 41.368 0 0.001 0 0.001 0 0.002v0zM324.454 272.742c-22.777 0-41.242-18.464-41.242-41.242s18.464-41.242 41.242-41.242v0h109.978c22.777 0 41.242 18.464 41.242 41.242s-18.464 41.242-41.242 41.242v0z" />
<glyph unicode="&#xe956;" glyph-name="shopping-basket-1" d="M71.872 430.336l68.608-435.2c4.502-32.977 32.114-58.229 65.777-59.007l0.079-0.001h621.76c34.309 0.818 62.282 26.889 66.083 60.296l0.029 0.312 58.56 433.728zM345.024 112.512c0.061-0.758 0.096-1.642 0.096-2.533 0-18.486-14.986-33.472-33.472-33.472s-33.472 14.986-33.472 33.472c0 0.892 0.035 1.775 0.103 2.649l-0.007-0.116v212.096c-0.061 0.758-0.096 1.642-0.096 2.533 0 18.486 14.986 33.472 33.472 33.472s33.472-14.986 33.472-33.472c0-0.892-0.035-1.775-0.103-2.649l0.007 0.116zM545.344 112.512c0.061-0.758 0.096-1.642 0.096-2.533 0-18.486-14.986-33.472-33.472-33.472s-33.472 14.986-33.472 33.472c0 0.892 0.035 1.775 0.103 2.649l-0.007-0.116v212.096c-0.061 0.758-0.096 1.642-0.096 2.533 0 18.486 14.986 33.472 33.472 33.472s33.472-14.986 33.472-33.472c0-0.892-0.035-1.775-0.103-2.649l0.007 0.116zM745.664 112.512c0.061-0.758 0.096-1.642 0.096-2.533 0-18.486-14.986-33.472-33.472-33.472s-33.472 14.986-33.472 33.472c0 0.892 0.035 1.775 0.103 2.649l-0.007-0.116v212.096c-0.061 0.758-0.096 1.642-0.096 2.533 0 18.486 14.986 33.472 33.472 33.472s33.472-14.986 33.472-33.472c0-0.892-0.035-1.775-0.103-2.649l0.007 0.116zM990.592 642.176h-97.472l-290.752 307.2c-5.871 6.405-14.276 10.406-23.616 10.406s-17.745-4.001-23.595-10.383l-0.021-0.024c-6.062-6.532-9.782-15.312-9.782-24.96s3.72-18.428 9.803-24.983l-0.021 0.023 243.52-257.536h-573.376l243.2 257.536c6.062 6.532 9.782 15.312 9.782 24.96s-3.72 18.428-9.803 24.983l0.021-0.023c-5.871 6.405-14.276 10.406-23.616 10.406s-17.745-4.001-23.595-10.383l-0.021-0.024-290.752-307.2h-97.088c-18.569-0.528-33.422-15.707-33.422-34.355 0-0.342 0.005-0.683 0.015-1.023l-0.001 0.050v-70.4c-0.009-0.29-0.014-0.631-0.014-0.973 0-18.648 14.852-33.827 33.373-34.354l0.049-0.001h957.184c18.567 0.53 33.417 15.708 33.417 34.355 0 0.275-0.003 0.549-0.010 0.822l0.001-0.041v70.4c0.013 0.347 0.020 0.755 0.020 1.165 0 18.65-14.856 33.831-33.379 34.354l-0.048 0.001z" />
<glyph unicode="&#xe957;" glyph-name="shopping-basket-3" d="M71.872 430.336l68.608-435.2c4.502-32.977 32.114-58.229 65.777-59.007l0.079-0.001h621.76c34.309 0.818 62.282 26.889 66.083 60.296l0.029 0.312 58.56 433.728zM345.024 112.512c0.061-0.758 0.096-1.642 0.096-2.533 0-18.486-14.986-33.472-33.472-33.472s-33.472 14.986-33.472 33.472c0 0.892 0.035 1.775 0.103 2.649l-0.007-0.116v212.096c-0.061 0.758-0.096 1.642-0.096 2.533 0 18.486 14.986 33.472 33.472 33.472s33.472-14.986 33.472-33.472c0-0.892-0.035-1.775-0.103-2.649l0.007 0.116zM545.344 112.512c0.061-0.758 0.096-1.642 0.096-2.533 0-18.486-14.986-33.472-33.472-33.472s-33.472 14.986-33.472 33.472c0 0.892 0.035 1.775 0.103 2.649l-0.007-0.116v212.096c-0.061 0.758-0.096 1.642-0.096 2.533 0 18.486 14.986 33.472 33.472 33.472s33.472-14.986 33.472-33.472c0-0.892-0.035-1.775-0.103-2.649l0.007 0.116zM745.664 112.512c0.061-0.758 0.096-1.642 0.096-2.533 0-18.486-14.986-33.472-33.472-33.472s-33.472 14.986-33.472 33.472c0 0.892 0.035 1.775 0.103 2.649l-0.007-0.116v212.096c-0.061 0.758-0.096 1.642-0.096 2.533 0 18.486 14.986 33.472 33.472 33.472s33.472-14.986 33.472-33.472c0-0.892-0.035-1.775-0.103-2.649l0.007 0.116zM990.592 642.176h-97.472l-290.752 307.2c-5.871 6.405-14.276 10.406-23.616 10.406s-17.745-4.001-23.595-10.383l-0.021-0.024c-6.062-6.532-9.782-15.312-9.782-24.96s3.72-18.428 9.803-24.983l-0.021 0.023 243.52-257.536h-573.376l243.2 257.536c6.062 6.532 9.782 15.312 9.782 24.96s-3.72 18.428-9.803 24.983l0.021-0.023c-5.871 6.405-14.276 10.406-23.616 10.406s-17.745-4.001-23.595-10.383l-0.021-0.024-290.752-307.2h-97.088c-18.569-0.528-33.422-15.707-33.422-34.355 0-0.342 0.005-0.683 0.015-1.023l-0.001 0.050v-70.4c-0.009-0.29-0.014-0.631-0.014-0.973 0-18.648 14.852-33.827 33.373-34.354l0.049-0.001h957.184c18.567 0.53 33.417 15.708 33.417 34.355 0 0.275-0.003 0.549-0.010 0.822l0.001-0.041v70.4c0.013 0.347 0.020 0.755 0.020 1.165 0 18.65-14.856 33.831-33.379 34.354l-0.048 0.001z" />
<glyph unicode="&#xe958;" glyph-name="Symbol-68-2" d="M819.159-63.949h-614.369c-113.044 0.146-204.644 91.746-204.79 204.776v614.383c0.146 113.044 91.746 204.644 204.776 204.79h614.383c113.102 0 204.79-91.687 204.79-204.79v0-614.369c0-113.102-91.687-204.79-204.79-204.79v0zM310.615 543.611v0l-71.676-71.676 221.839-221.839 293.566 296.945-71.676 71.676-221.89-221.89-150.162 146.732z" />
<glyph unicode="&#xe959;" glyph-name="Symbol-70-1" d="M0 960h128v-1024h-128v1024zM896 960h128v-1024h-128v1024zM192 960h128v-704h-128v704zM704 960h128v-704h-128v704zM640 256h-256v704h256z" />
<glyph unicode="&#xe95a;" d="M336.725 608.427c-23.762 28.024-38.21 64.599-38.21 104.547 0 89.544 72.59 162.133 162.133 162.133s162.133-72.59 162.133-162.133c0-38.936-13.725-74.666-36.6-102.617l0.229 0.288-25.6 20.651c17.957 21.865 28.843 50.134 28.843 80.944 0 0.148 0 0.296-0.001 0.444v-0.023c0 0.006 0 0.012 0 0.019 0 71.352-57.842 129.195-129.195 129.195s-129.195-57.842-129.195-129.195c0-31.772 11.469-60.866 30.493-83.367l-0.157 0.191z" />
<glyph unicode="&#xe95b;" d="M341.333 496c-76.972 42.961-128.167 123.908-128.167 216.812 0 136.672 110.795 247.467 247.467 247.467s247.467-110.795 247.467-247.467c0-68.279-27.652-130.099-72.369-174.873l0.003 0.003-23.381 23.125c38.739 38.814 62.695 92.396 62.695 151.572 0 118.504-96.067 214.571-214.571 214.571s-214.571-96.067-214.571-214.571c0-80.537 44.371-150.711 110-187.409l1.086-0.558z" />
<glyph unicode="&#xe95c;" d="M814.421 404.949v-308.736c0-0.017 0-0.038 0-0.059 0-13.164-0.962-26.104-2.818-38.753l0.173 1.436c-2.059-14.134-4.828-26.516-8.421-38.543l0.485 1.893c-4.461-14.456-8.393-32.045-11.025-50.057l-0.239-1.996c-2.415-15.961-3.795-34.378-3.797-53.118v-0.002h-363.392v55.893c-0.031 18.528-10.852 34.521-26.514 42.033l-0.28 0.121c-10.806 5.507-19.88 10.963-28.55 16.961l0.817-0.535c-17.717 11.912-31.733 28.064-40.785 47.038l-0.303 0.706-61.013 130.219c-3.742 7.792-5.928 16.939-5.928 26.597 0 15.571 5.682 29.815 15.086 40.772l-0.070-0.084 20.821 24.405c9.73 11.338 15.653 26.191 15.653 42.426 0 3.094-0.215 6.138-0.631 9.118l0.039-0.344c-0.303 2.013-0.476 4.336-0.476 6.699 0 26.156 21.204 47.36 47.36 47.36 0.092 0 0.185 0 0.277-0.001h-0.014c0.037 0 0.081 0 0.125 0 2.435 0 4.841-0.124 7.213-0.366l-0.298 0.025c9.287-0.802 17.845-3.11 25.705-6.684l-0.489 0.199v316.331c0 30.091 24.394 54.485 54.485 54.485s54.485-24.394 54.485-54.485v0-248.875c0 30.091 24.394 54.485 54.485 54.485s54.485-24.394 54.485-54.485v-37.589c0 30.091 24.394 54.485 54.485 54.485s54.485-24.394 54.485-54.485v0-25.6c-0.001 0.108-0.001 0.236-0.001 0.363 0 25.929 20.615 47.044 46.349 47.848l0.074 0.002c0.228 0.004 0.498 0.006 0.768 0.006 26.038 0 47.147-21.108 47.147-47.147 0-0.017 0-0.034 0-0.052v0.003z" />
<glyph unicode="&#xe95d;" d="M393.131 399.616v-170.368c-0.013 0-0.028 0-0.043 0-13.903 0-25.173 11.27-25.173 25.173 0 0.015 0 0.030 0 0.045v-0.002 151.595c9.284-0.787 17.843-3.081 25.707-6.641l-0.491 0.199z" />
<glyph unicode="&#xe95e;" glyph-name="ic-3d-rotation-24px" horiz-adv-x="1019" d="M318.72 43.52c-140.214 67.158-238.79 201.37-254.57 359.95l-0.15 1.863h-64c22.589-263.742 242.216-469.27 509.86-469.333h0.006l28.16 1.28-162.56 162.56-56.747-56.32zM356.693 321.707c-0.119-0.001-0.26-0.001-0.401-0.001-7.785 0-15.278 1.249-22.289 3.558l0.503-0.143c-6.648 2.246-12.351 5.748-17.085 10.258l0.019-0.018c-4.77 4.266-8.542 9.544-10.991 15.505l-0.102 0.282c-2.431 5.735-3.844 12.405-3.844 19.405 0 0.228 0.001 0.455 0.004 0.683v-0.034h-55.467c-0.014-0.585-0.022-1.274-0.022-1.965 0-14.046 3.317-27.316 9.211-39.072l-0.229 0.503c6.113-11.608 14.125-21.391 23.732-29.311l0.161-0.129c9.956-7.576 21.607-13.561 34.224-17.299l0.763-0.194c11.968-4.060 25.754-6.403 40.086-6.403 0.307 0 0.614 0.001 0.921 0.003h-0.047c0.441-0.005 0.961-0.008 1.482-0.008 15.156 0 29.765 2.343 43.484 6.686l-1.019-0.278c13.607 4.186 25.407 10.607 35.601 18.922l-0.188-0.149c9.953 8.213 17.901 18.485 23.251 30.193l0.216 0.527c5.395 11.875 8.539 25.752 8.539 40.363 0 0.36-0.002 0.72-0.006 1.079v-0.055c0.003 0.278 0.005 0.606 0.005 0.934 0 8.163-1.092 16.072-3.137 23.587l0.146-0.628c-2.198 8.273-5.564 15.523-9.973 22.008l0.159-0.248c-4.758 7.114-10.411 13.174-16.894 18.217l-0.173 0.129c-7.442 5.565-16.085 10.068-25.406 13.055l-0.621 0.172c8.492 3.823 15.804 8.539 22.297 14.174l-0.111-0.094c6.007 5.212 11.218 11.101 15.586 17.604l0.2 0.316c3.841 5.643 7.031 12.15 9.24 19.094l0.146 0.532c1.896 5.965 2.989 12.825 2.989 19.94 0 0.19-0.001 0.379-0.002 0.569v-0.029c0.011 0.556 0.017 1.211 0.017 1.867 0 14.097-2.829 27.534-7.949 39.774l0.253-0.681c-4.956 11.76-12.364 21.632-21.636 29.34l-0.124 0.1c-9.147 8.139-20.129 14.434-32.232 18.181l-0.622 0.166c-12.792 3.793-27.489 5.976-42.696 5.976-0.29 0-0.579-0.001-0.869-0.002h0.045c-0.51 0.007-1.112 0.012-1.715 0.012-14.664 0-28.744-2.504-41.834-7.109l0.883 0.271c-12.957-4.629-24.143-11.143-33.871-19.335l0.164 0.135c-8.838-7.96-16.13-17.433-21.509-28.040l-0.251-0.547c-4.853-10.37-7.685-22.518-7.685-35.326 0-0.331 0.002-0.661 0.006-0.991v0.050h55.467c-0.006 0.272-0.009 0.593-0.009 0.915 0 6.617 1.417 12.903 3.964 18.572l-0.115-0.287c2.52 5.748 6.135 10.593 10.615 14.463l0.051 0.043c4.582 3.965 9.967 7.152 15.861 9.276l0.352 0.111c6.070 2.163 13.072 3.413 20.366 3.413 0.040 0 0.080 0 0.12 0h-0.006c1.292 0.121 2.793 0.19 4.31 0.19 13.052 0 24.91-5.109 33.684-13.437l-0.021 0.020c7.747-8.967 12.466-20.737 12.466-33.61 0-1.085-0.034-2.162-0.1-3.23l0.007 0.146c0-0.032 0-0.071 0-0.109 0-7.443-1.25-14.594-3.551-21.255l0.137 0.457c-2.23-6.296-5.897-11.613-10.624-15.75l-0.043-0.037c-4.936-4.33-10.747-7.806-17.117-10.12l-0.376-0.12c-6.922-2.444-14.904-3.856-23.215-3.856-0.538 0-1.075 0.006-1.611 0.018l0.080-0.001h-32.853v-43.947h32.853c0.534 0.011 1.165 0.017 1.796 0.017 8.458 0 16.66-1.096 24.472-3.153l-0.668 0.149c7.388-2.006 13.813-5.388 19.289-9.885l-0.089 0.071c5.186-4.675 9.364-10.357 12.245-16.75l0.128-0.317c2.719-6.629 4.298-14.324 4.298-22.387 0-0.68-0.011-1.357-0.033-2.031l0.003 0.098c0.073-1.024 0.115-2.219 0.115-3.424 0-14.164-5.752-26.985-15.047-36.254l-0.001-0.001c-9.669-8.813-22.585-14.21-36.762-14.21-1.327 0-2.643 0.047-3.947 0.14l0.175-0.010zM721.493 574.293c-13.437 13.88-29.626 25.005-47.698 32.507l-0.942 0.346c-17.691 7.301-38.231 11.54-59.761 11.54-0.89 0-1.779-0.007-2.666-0.022l0.134 0.002h-100.693v-341.333h98.133c0.678-0.010 1.478-0.015 2.279-0.015 22.349 0 43.71 4.233 63.323 11.942l-1.176-0.407c19.338 7.584 35.828 18.593 49.479 32.412l0.014 0.014c13.562 14.097 24.304 31.016 31.25 49.776l0.323 0.997c7.036 19.325 11.105 41.633 11.105 64.892 0 0.736-0.004 1.472-0.012 2.206l0.001-0.112v17.067c0.007 0.623 0.011 1.358 0.011 2.095 0 23.258-4.069 45.567-11.533 66.252l0.429-1.36c-7.489 19.897-18.358 36.938-32.053 51.255l0.053-0.055zM704.853 439.467c0.003-0.412 0.005-0.9 0.005-1.387 0-16.642-2.181-32.775-6.274-48.127l0.295 1.301c-3.937-13.908-10.237-26.014-18.513-36.485l0.166 0.218c-8.056-9.707-18.205-17.393-29.778-22.414l-0.516-0.199c-11.955-4.87-25.825-7.696-40.356-7.696-0.663 0-1.324 0.006-1.983 0.018l0.099-0.001h-38.827v246.187h41.387c1.688 0.12 3.658 0.188 5.644 0.188 25.692 0 48.71-11.446 64.235-29.516l0.094-0.112c15.387-21.088 24.618-47.521 24.618-76.11 0-3.095-0.108-6.165-0.321-9.206l0.023 0.41zM509.867 960l-28.16-1.28 162.56-162.56 56.747 56.747c140.133-67.151 238.598-201.399 254.147-359.974l0.146-1.84h64c-22.442 263.518-241.876 468.907-509.281 468.907-0.056 0-0.112 0-0.168 0h0.009z" />
<glyph unicode="&#xe95f;" glyph-name="ic-ac-unit-24px" d="M1024 499.2h-213.504l165.888 165.888-72.192 72.704-238.592-238.592h-102.4v102.4l238.592 238.592-72.704 72.192-165.888-165.888v213.504h-102.4v-213.504l-165.888 165.888-72.704-72.192 238.592-238.592v-102.4h-102.4l-238.592 238.592-72.192-72.704 165.888-165.888h-213.504v-102.4h213.504l-165.888-165.888 72.192-72.704 238.592 238.592h102.4v-102.4l-238.592-238.592 72.704-72.192 165.888 165.888v-213.504h102.4v213.504l165.888-165.888 72.704 72.192-238.592 238.592v102.4h102.4l238.592-238.592 72.192 72.704-165.888 165.888h213.504z" />
<glyph unicode="&#xe960;" glyph-name="ic-access-alarm-24px" horiz-adv-x="1017" d="M1016.882 763.742l-233.883 196.258-65.589-77.791 233.883-196.258zM298.963 882.209l-65.080 77.791-233.883-195.75 65.589-77.791 233.374 195.75zM533.863 647.817h-76.266v-305.065l241.509-144.906 38.133 62.538-203.376 120.5zM508.441 851.194c-252.724 0-457.597-204.873-457.597-457.597s204.873-457.597 457.597-457.597c252.724 0 457.597 204.873 457.597 457.597v0c0 252.724-204.873 457.597-457.597 457.597v0zM508.441 37.688c-196.563 0-355.909 159.346-355.909 355.909s159.346 355.909 355.909 355.909c196.563 0 355.909-159.346 355.909-355.909v0c0-0.075 0-0.165 0-0.254 0-196.423-159.232-355.654-355.654-355.654-0.089 0-0.179 0-0.268 0h0.013z" />
<glyph unicode="&#xe961;" glyph-name="ic-access-alarms-24px" horiz-adv-x="1014" d="M1013.861 762.297l-233.188 197.703-65.901-76.040 233.188-197.703zM299.089 878.891l-65.901 76.040-233.188-192.634 65.901-76.040 233.188 192.634zM532.277 645.703h-76.040v-304.158l238.257-147.010 40.554 60.832-202.772 121.663zM506.931 848.475c-251.973 0-456.238-204.265-456.238-456.238s204.265-456.238 456.238-456.238c251.973 0 456.238 204.265 456.238 456.238v0c0.002 0.558 0.004 1.219 0.004 1.88 0 250.937-203.425 454.362-454.362 454.362-0.661 0-1.321-0.001-1.981-0.004h0.102zM506.931 37.386c-195.979 0-354.851 158.872-354.851 354.851s158.872 354.851 354.851 354.851c195.979 0 354.851-158.872 354.851-354.851v0c0.004-0.65 0.007-1.418 0.007-2.187 0-194.775-157.896-352.672-352.672-352.672-0.769 0-1.537 0.002-2.305 0.007l0.118-0.001z" />
<glyph unicode="&#xe962;" glyph-name="ic-access-time-24px" d="M511.488 960c-282.55-0.292-511.488-229.41-511.488-512 0-282.77 229.23-512 512-512s512 229.23 512 512v0c0 282.77-229.23 512-512 512-0.18 0-0.36 0-0.54 0h0.028zM512 38.4c-226.216 0-409.6 183.384-409.6 409.6s183.384 409.6 409.6 409.6c226.216 0 409.6-183.384 409.6-409.6v0c0-226.216-183.384-409.6-409.6-409.6v0zM537.6 704h-76.8v-307.2l268.8-161.28 38.4 62.976-230.4 136.704z" />
<glyph unicode="&#xe963;" glyph-name="ic-accessibility-24px" d="M512 960c56.554 0 102.4-45.846 102.4-102.4s-45.846-102.4-102.4-102.4c-56.554 0-102.4 45.846-102.4 102.4v0c0.174 56.484 45.916 102.226 102.383 102.4h0.017zM972.8 601.6h-307.2v-665.6h-102.4v307.2h-102.4v-307.2h-102.4v665.6h-307.2v102.4h921.6z" />
<glyph unicode="&#xe964;" glyph-name="ic-accessible-24px" d="M614.4 857.6c0-56.554-45.846-102.4-102.4-102.4s-102.4 45.846-102.4 102.4c0 56.554 45.846 102.4 102.4 102.4s102.4-45.846 102.4-102.4zM870.4 396.8v102.4c-82.544 1.183-156.501 36.974-208.187 93.477l-66.245 73.435c-8.648 9.486-19.016 17.234-30.635 22.783l-0.597 0.257c-0.512 0-0.512 0.512-1.024 0.512h-0.512c-14.707 8.655-32.398 13.767-51.283 13.767-3.396 0-6.753-0.165-10.065-0.488l0.42 0.033c-52.401-6.082-92.696-50.205-92.696-103.739 0-0.789 0.009-1.577 0.026-2.362l-0.002 0.117v-302.592c0.174-56.484 45.916-102.226 102.383-102.4h256.017v-256h102.4v281.6c-0.174 56.484-45.916 102.226-102.383 102.4h-153.617v176.64c69.338-57.764 157.919-94.597 254.904-99.793l1.096-0.047zM554.496 140.8c-21.758-60.103-78.34-102.275-144.771-102.275-84.831 0-153.6 68.769-153.6 153.6 0 66.432 42.173 123.013 101.207 144.432l1.069 0.339v105.984c-117.654-24.678-204.734-127.577-204.734-250.814 0-141.385 114.615-256 256-256 123.238 0 226.136 87.081 250.521 203.067l0.293 1.668z" />
<glyph unicode="&#xe965;" glyph-name="ic-account-balance-24px" horiz-adv-x="926" d="M97.524 521.143v-341.333h146.286v341.333zM390.095 521.143v-341.333h146.286v341.333zM0-64h926.476v146.286h-926.476zM682.667 521.143v-341.333h146.286v341.333zM463.238 960l-463.238-243.81v-97.524h926.476v97.524z" />
<glyph unicode="&#xe966;" glyph-name="ic-account-balance-wallet-24px" d="M970.105 124.632v-53.895c-0.183-59.457-48.333-107.606-107.772-107.789h-754.544c-59.53 0-107.789 48.259-107.789 107.789v0 754.526c0 59.53 48.259 107.789 107.789 107.789v0h754.526c59.457-0.183 107.606-48.333 107.789-107.772v-53.913h-485.053c-59.53 0-107.789-48.259-107.789-107.789v0-431.158c0-59.53 48.259-107.789 107.789-107.789v0zM485.053 232.421h538.947v431.158h-538.947zM700.632 367.158c-44.648 0-80.842 36.194-80.842 80.842s36.194 80.842 80.842 80.842c44.648 0 80.842-36.194 80.842-80.842v0c0-44.648-36.194-80.842-80.842-80.842v0z" />
<glyph unicode="&#xe967;" glyph-name="ic-account-box-24px" d="M0 846.222v-796.444c0-62.838 50.94-113.778 113.778-113.778v0h796.444c62.76 0.193 113.584 51.018 113.778 113.759v796.463c-0.193 62.76-51.018 113.584-113.759 113.778h-796.463c-62.838 0-113.778-50.94-113.778-113.778v0zM682.667 618.667c0-94.257-76.41-170.667-170.667-170.667s-170.667 76.41-170.667 170.667c0 94.257 76.41 170.667 170.667 170.667v0c94.257 0 170.667-76.41 170.667-170.667v0zM170.667 163.556c0 113.778 227.556 176.356 341.333 176.356s341.333-62.578 341.333-176.356v-56.889h-682.667z" />
<glyph unicode="&#xe968;" glyph-name="ic-account-circle-24px" d="M512 960c-282.77 0-512-229.23-512-512s229.23-512 512-512c282.77 0 512 229.23 512 512v0c0 282.77-229.23 512-512 512v0zM512 806.4c84.831 0 153.6-68.769 153.6-153.6s-68.769-153.6-153.6-153.6c-84.831 0-153.6 68.769-153.6 153.6v0c0 84.831 68.769 153.6 153.6 153.6v0zM512 79.36c0 0-0.001 0-0.002 0-127.681 0-240.201 64.912-306.36 163.536l-0.839 1.328c1.536 101.888 204.8 157.696 307.2 157.696s305.664-55.808 307.2-157.696c-66.997-99.952-179.517-164.864-307.198-164.864-0.001 0-0.001 0-0.002 0v0z" />
<glyph unicode="&#xe969;" glyph-name="ic-adb-24px" d="M186.182 282.298c0-179.944 145.874-325.818 325.818-325.818s325.818 145.874 325.818 325.818v0 186.182h-651.636zM703.767 823.622l97.745 97.745-38.167 38.633-107.055-107.52c-41.963 21.829-91.6 34.712-144.228 34.909h-0.063c-52.533-0.138-102.023-13.030-145.579-35.741l1.753 0.832-107.52 107.52-38.167-38.633 97.745-97.745c-81.547-59.452-133.961-154.621-134.051-262.036v-46.56h651.636v46.545c-0.090 107.43-52.504 202.599-133.129 261.41l-0.922 0.641zM372.364 608.116c-25.706 0-46.545 20.839-46.545 46.545s20.839 46.545 46.545 46.545c25.706 0 46.545-20.839 46.545-46.545v0c0-25.706-20.839-46.545-46.545-46.545v0zM651.636 608.116c-25.706 0-46.545 20.839-46.545 46.545s20.839 46.545 46.545 46.545c25.706 0 46.545-20.839 46.545-46.545v0c0-25.706-20.839-46.545-46.545-46.545v0z" />
<glyph unicode="&#xe96a;" glyph-name="ic-add-24px" d="M1024 374.857h-438.857v-438.857h-146.286v438.857h-438.857v146.286h438.857v438.857h146.286v-438.857h438.857z" />
<glyph unicode="&#xe96b;" glyph-name="ic-add-a-photo-24px" horiz-adv-x="1122" d="M146.286 813.714v146.286h97.524v-146.286h146.286v-97.524h-146.286v-146.286h-97.524v146.286h-146.286v97.524zM292.571 521.143v146.286h146.286v146.286h341.333l89.234-97.524h154.575c53.794-0.166 97.358-43.73 97.524-97.508v-585.159c-0.166-53.794-43.73-97.358-97.508-97.524h-780.206c-53.794 0.166-97.358 43.73-97.524 97.508v487.635zM633.905 82.286c134.652 0 243.81 109.157 243.81 243.81s-109.157 243.81-243.81 243.81c-134.652 0-243.81-109.157-243.81-243.81v0c0-134.652 109.157-243.81 243.81-243.81v0zM477.867 326.095c0-86.177 69.861-156.038 156.038-156.038s156.038 69.861 156.038 156.038c0 86.177-69.861 156.038-156.038 156.038v0c-86.177 0-156.038-69.861-156.038-156.038v0z" />
<glyph unicode="&#xe96c;" glyph-name="ic-add-alarm-24px" horiz-adv-x="1017" d="M298.963 882.209l-65.080 77.791-233.883-195.75 65.589-77.791 233.374 195.75zM1016.882 763.742l-233.883 196.258-65.589-77.791 233.883-196.258zM508.441 851.194c-252.724 0-457.597-204.873-457.597-457.597s204.873-457.597 457.597-457.597c252.724 0 457.597 204.873 457.597 457.597v0c0 252.724-204.873 457.597-457.597 457.597v0zM508.441 37.688c-196.563 0-355.909 159.346-355.909 355.909s159.346 355.909 355.909 355.909c196.563 0 355.909-159.346 355.909-355.909v0c0-0.075 0-0.165 0-0.254 0-196.423-159.232-355.654-355.654-355.654-0.089 0-0.179 0-0.268 0h0.013zM559.285 596.973h-101.688v-152.532h-152.532v-101.688h152.532v-152.532h101.688v152.532h152.532v101.688h-152.532z" />
<glyph unicode="&#xe96d;" glyph-name="ic-add-alert-24px" horiz-adv-x="878" d="M341.821 33.036c0-53.592 43.445-97.036 97.036-97.036s97.036 43.445 97.036 97.036v0zM774.339 237.349v283.794c0 0.026 0 0.056 0 0.087 0 157.707-108.931 289.973-255.658 325.659l-2.293 0.471v35.109c0 42.819-34.712 77.531-77.531 77.531s-77.531-34.712-77.531-77.531v0-35.109c-149.019-36.158-257.95-168.423-257.95-326.13 0-0.031 0-0.061 0-0.092v0.005-283.794l-103.375-103.375v-51.688h877.714v51.688zM633.905 423.131h-146.286v-146.286h-97.524v146.286h-146.286v98.011h146.286v146.286h97.524v-146.286h146.286z" />
<glyph unicode="&#xe96e;" glyph-name="ic-add-box-24px" d="M910.222 960h-796.444c-62.838 0-113.778-50.94-113.778-113.778v0-796.444c0-62.838 50.94-113.778 113.778-113.778v0h796.444c62.76 0.193 113.584 51.018 113.778 113.759v796.463c-0.193 62.76-51.018 113.584-113.759 113.778h-0.019zM796.444 391.111h-227.556v-227.556h-113.778v227.556h-227.556v113.778h227.556v227.556h113.778v-227.556h227.556z" />
<glyph unicode="&#xe96f;" glyph-name="ic-add-circle-24px" d="M512 960c-282.77 0-512-229.23-512-512s229.23-512 512-512c282.77 0 512 229.23 512 512v0c0 282.77-229.23 512-512 512v0zM768 396.8h-204.8v-204.8h-102.4v204.8h-204.8v102.4h204.8v204.8h102.4v-204.8h204.8z" />
<glyph unicode="&#xe970;" glyph-name="ic-add-circle-outline-24px" d="M563.2 704h-102.4v-204.8h-204.8v-102.4h204.8v-204.8h102.4v204.8h204.8v102.4h-204.8zM512 960c-282.77 0-512-229.23-512-512s229.23-512 512-512c282.77 0 512 229.23 512 512v0c0 282.77-229.23 512-512 512v0zM512 38.4c-226.216 0-409.6 183.384-409.6 409.6s183.384 409.6 409.6 409.6c226.216 0 409.6-183.384 409.6-409.6v0c-0.32-226.087-183.513-409.28-409.569-409.6h-0.031z" />
<glyph unicode="&#xe971;" glyph-name="ic-add-location-24px" d="M512 960c-197.845-0.233-358.167-160.555-358.4-358.378v-0.022c0-268.8 358.4-665.6 358.4-665.6s358.4 396.8 358.4 665.6c-0.233 197.845-160.555 358.167-358.378 358.4h-0.022zM716.8 550.4h-153.6v-153.6h-102.4v153.6h-153.6v102.4h153.6v153.6h102.4v-153.6h153.6z" />
<glyph unicode="&#xe972;" glyph-name="ic-add-shopping-cart-24px" horiz-adv-x="983" d="M487.619 569.905h97.524v146.286h146.286v97.524h-146.286v146.286h-97.524v-146.286h-146.286v-97.524h146.286zM292.571 131.048c-53.861 0-97.524-43.663-97.524-97.524s43.663-97.524 97.524-97.524c53.861 0 97.524 43.663 97.524 97.524v0c0 53.861-43.663 97.524-97.524 97.524v0zM780.19 131.048c-53.861 0-97.524-43.663-97.524-97.524s43.663-97.524 97.524-97.524c53.861 0 97.524 43.663 97.524 97.524v0c0 53.861-43.663 97.524-97.524 97.524v0zM300.861 289.524l1.463 5.851 43.886 79.482h363.276c0.091 0 0.198 0 0.306 0 36.425 0 68.165 20.060 84.775 49.734l0.252 0.491 188.221 341.821-84.846 46.811h-0.488l-53.638-97.524-134.583-243.81h-342.309l-6.339 13.166-109.227 230.644-46.324 97.524-45.836 97.524h-159.451v-97.524h97.524l175.543-370.103-65.829-119.467c-7.668-13.335-12.192-29.321-12.192-46.364 0-0.157 0-0.314 0.001-0.472v0.024c0.166-53.794 43.73-97.358 97.508-97.524h585.159v97.524h-564.663c-6.689 0.108-12.083 5.502-12.19 12.18v0.010z" />
<glyph unicode="&#xe973;" glyph-name="ic-add-to-photos-24px" d="M102.4 755.2h-102.4v-716.8c0.174-56.484 45.916-102.226 102.383-102.4h716.817v102.4h-716.8zM921.6 960h-614.4c-56.484-0.174-102.226-45.916-102.4-102.383v-614.417c0.174-56.484 45.916-102.226 102.383-102.4h614.417c56.484 0.174 102.226 45.916 102.4 102.383v614.417c-0.174 56.484-45.916 102.226-102.383 102.4h-0.017zM870.4 499.2h-204.8v-204.8h-102.4v204.8h-204.8v102.4h204.8v204.8h102.4v-204.8h204.8z" />
<glyph unicode="&#xe974;" glyph-name="ic-add-to-queue-24px" d="M930.909 866.909h-837.818c-0.097 0-0.212 0.001-0.326 0.001-51.233 0-92.765-41.532-92.765-92.765 0-0.115 0-0.229 0.001-0.344v0.018-558.545c0-51.413 41.678-93.091 93.091-93.091v0h232.727v-93.091h372.364v93.091h232.727c51.212 0.264 92.625 41.841 92.625 93.090 0 0 0 0.001 0 0.001v0l0.465 558.545c0 51.413-41.678 93.091-93.091 93.091v0zM930.909 215.273h-837.818v558.545h837.818zM698.182 541.091v-93.091h-139.636v-139.636h-93.091v139.636h-139.636v93.091h139.636v139.636h93.091v-139.636z" />
<glyph unicode="&#xe975;" glyph-name="ic-adjust-24px" d="M512 960c-282.77 0-512-229.23-512-512s229.23-512 512-512c282.77 0 512 229.23 512 512v0c-0.466 282.583-229.418 511.535-511.956 512h-0.044zM512 38.4c-226.216 0-409.6 183.384-409.6 409.6s183.384 409.6 409.6 409.6c226.216 0 409.6-183.384 409.6-409.6v0c-0.32-226.087-183.513-409.28-409.569-409.6h-0.031zM665.6 448c0-84.831-68.769-153.6-153.6-153.6s-153.6 68.769-153.6 153.6c0 84.831 68.769 153.6 153.6 153.6v0c84.831 0 153.6-68.769 153.6-153.6v0z" />
<glyph unicode="&#xe976;" glyph-name="ic-airline-seat-flat-24px" d="M1024 524.8v-102.4h-665.6v307.2h460.8c113.108 0 204.8-91.692 204.8-204.8v0zM0 371.2v-102.4h307.2v-102.4h409.6v102.4h307.2v102.4zM263.168 468.48c27.224 27.697 44.031 65.708 44.031 107.646 0 84.831-68.769 153.6-153.6 153.6s-153.6-68.769-153.6-153.6c0-42.956 17.633-81.794 46.056-109.669l0.025-0.024c27.683-27.15 65.644-43.906 107.519-43.906 42.894 0 81.681 17.582 109.548 45.933l0.021 0.022z" />
<glyph unicode="&#xe977;" glyph-name="ic-airline-seat-flat-angled-24px" d="M1011.81 312.052l-33.646-92.16-602.697 217.966 101.425 275.992 417.402-150.674c76.142-27.725 129.534-99.485 129.534-183.716 0-24.199-4.407-47.369-12.462-68.751l0.444 1.344zM0 416.89l316.952-114.103v-220.404h390.095v79.482l220.404-79.482 33.646 92.16-927.451 334.507-33.646-92.16zM282.819 511.488c49.485 24.157 82.971 74.105 82.971 131.874 0 80.791-65.494 146.286-146.286 146.286s-146.286-65.494-146.286-146.286c0-23.136 5.371-45.018 14.935-64.467l-0.382 0.86c24.362-49.257 74.264-82.533 131.938-82.533 22.938 0 44.646 5.263 63.983 14.648l-0.873-0.382z" />
<glyph unicode="&#xe978;" glyph-name="ic-airline-seat-individual-suite-24px" d="M279.273 401.455c77.119 0 139.636 62.517 139.636 139.636s-62.517 139.636-139.636 139.636c-77.119 0-139.636-62.517-139.636-139.636v0c0.237-77.023 62.613-139.399 139.614-139.636h0.023zM837.818 680.727h-372.364v-325.818h-372.364v325.818h-93.091v-465.455h1024v279.273c0 102.825-83.356 186.182-186.182 186.182v0z" />
<glyph unicode="&#xe979;" glyph-name="ic-airline-seat-legroom-extra-24px" d="M97.524 448v438.857h-97.524v-438.857c0-134.652 109.157-243.81 243.81-243.81v0h292.571v97.524h-292.571c-80.791 0-146.286 65.494-146.286 146.286v0zM1015.71 192.488c-13.299 23.053-37.817 38.32-65.9 38.32-12.038 0-23.421-2.805-33.531-7.798l0.444 0.198-53.15-24.381-166.278 340.358c-16.273 32.451-49.19 54.386-87.253 54.613h-0.031l-171.154 0.488v292.571h-292.571v-390.095c0-80.791 65.494-146.286 146.286-146.286v0h341.333l166.278-341.333 181.394 82.895c25.244 12.009 42.383 37.307 42.383 66.609 0 12.364-3.052 24.015-8.443 34.242l0.193-0.402z" />
<glyph unicode="&#xe97a;" glyph-name="ic-airline-seat-legroom-normal-24px" d="M107.789 448v485.053h-107.789v-485.053c0-148.826 120.647-269.474 269.474-269.474v0h323.368v107.789h-323.368c-89.296 0-161.684 72.388-161.684 161.684v0zM943.158 124.632h-80.842v377.263c-0.183 59.457-48.333 107.606-107.772 107.789h-269.492v323.368h-323.368v-431.158c0.275-89.185 72.499-161.409 161.658-161.684h377.289v-377.263h242.526c44.648 0 80.842 36.194 80.842 80.842s-36.194 80.842-80.842 80.842v0z" />
<glyph unicode="&#xe97b;" glyph-name="ic-airline-seat-legroom-reduced-24px" d="M993.849 38.4c1.041-5.012 1.636-10.771 1.636-16.67 0-47.183-38.117-85.464-85.238-85.73h-256.025v170.667l56.889 227.556h-341.333c-94.14 0.29-170.377 76.527-170.667 170.639v455.139h341.333v-341.333h284.444c62.76-0.193 113.584-51.018 113.778-113.759v-0.019l-113.778-398.222h81.92c0.487 0.010 1.060 0.015 1.635 0.015 41.522 0 76.294-28.905 85.29-67.691l0.115-0.591zM142.222 448v512h-113.778v-512c0-157.094 127.35-284.444 284.444-284.444v0h227.556v113.778h-227.556c-94.257 0-170.667 76.41-170.667 170.667v0z" />
<glyph unicode="&#xe97c;" glyph-name="ic-airline-seat-recline-extra-24px" d="M171.52 748.083c-26.439 18.769-43.482 49.27-43.482 83.752 0 56.554 45.846 102.4 102.4 102.4s102.4-45.846 102.4-102.4c0-21.963-6.915-42.311-18.686-58.986l0.216 0.322c-18.907-26.444-49.511-43.476-84.093-43.476-21.982 0-42.356 6.881-59.086 18.608l0.331-0.22zM716.8 64.051h-361.984c-0.049 0-0.106 0-0.164 0-76.427 0-139.777 55.986-151.276 129.183l-0.112 0.865-100.864 484.352h-102.4l101.888-499.712c19.773-123.69 125.699-217.076 253.439-217.088h361.473zM728.576 268.851h-249.856l-52.736 209.92c61.296-40.827 136.632-65.148 217.647-65.148 16.222 0 32.216 0.975 47.927 2.87l-1.894-0.186v109.056c-13.936-2.206-30.007-3.466-46.371-3.466-73.503 0-141.070 25.421-194.386 67.95l0.629-0.485-83.968 65.024c-11.045 8.514-24.018 15.183-38.094 19.254l-0.818 0.202c-9.584 2.935-20.6 4.625-32.011 4.625-6.597 0-13.062-0.565-19.349-1.649l0.672 0.096h-1.024c-54.814-9.995-95.823-57.375-95.823-114.334 0-6.817 0.587-13.496 1.714-19.991l-0.099 0.693 69.12-303.104c14.13-71.579 76.352-124.828 151.029-124.928h350.731l195.584-153.6 76.8 76.8z" />
<glyph unicode="&#xe97d;" glyph-name="ic-airline-seat-recline-normal-24px" d="M286.208 785.152c-18.507 18.527-29.952 44.111-29.952 72.367 0 56.554 45.846 102.4 102.4 102.4s102.4-45.846 102.4-102.4c0-28.257-11.445-53.841-29.953-72.368l0.001 0.001c-18.535-18.555-44.151-30.033-72.448-30.033s-53.913 11.478-72.447 30.032l-0.001 0.001zM204.8 242.944v460.8h-102.4v-460.8c0-141.385 114.615-256 256-256v0h307.2v102.4h-307.2c-84.831 0-153.6 68.769-153.6 153.6v0zM921.6 34.56l-259.584 259.584h-175.616v188.416c76.411-63.39 173.706-104.063 280.237-110.526l1.363-0.066v110.592c-93.932 2.422-178.187 41.937-239.032 104.374l-0.072 0.074-71.68 79.36c-9.773 10.598-21.507 19.219-34.65 25.318l-0.678 0.282c-14.333 7.238-31.213 11.564-49.082 11.775l-0.070 0.001h-1.536c-63.588-0.087-115.113-51.612-115.2-115.191v-294.409c0-84.831 68.769-153.6 153.6-153.6v0h259.584l179.2-179.2z" />
<glyph unicode="&#xe97e;" glyph-name="ic-airplanemode-active-24px" d="M998.4 243.2v102.4l-409.6 256v281.6c0 42.415-34.385 76.8-76.8 76.8s-76.8-34.385-76.8-76.8v0-281.6l-409.6-256v-102.4l409.6 128v-281.6l-102.4-76.8v-76.8l179.2 51.2 179.2-51.2v76.8l-102.4 76.8v281.6z" />
<glyph unicode="&#xe97f;" glyph-name="ic-airplanemode-inactive-24px" d="M588.8 601.6v281.6c0 42.415-34.385 76.8-76.8 76.8s-76.8-34.385-76.8-76.8v0-188.416l400.896-400.896 162.304-50.688v102.4zM76.8 792.576l255.488-255.488-306.688-191.488v-102.4l409.6 128v-281.6l-102.4-76.8v-76.8l179.2 51.2 179.2-51.2v76.8l-102.4 76.8v190.976l293.376-293.376 65.024 65.024-805.376 805.376z" />
<glyph unicode="&#xe980;" glyph-name="ic-airplay-24px" d="M232.727 5.818h558.545l-279.273 279.273zM930.909 890.182h-837.818c-51.349-0.158-92.933-41.742-93.091-93.076v-558.56c0.158-51.349 41.742-92.933 93.076-93.091h186.197v93.091h-186.182v558.545h837.818v-558.545h-186.182v-93.091h186.182c51.349 0.158 92.933 41.742 93.091 93.076v558.56c-0.158 51.349-41.742 92.933-93.076 93.091h-0.015z" />
<glyph unicode="&#xe981;" glyph-name="ic-airport-shuttle-24px" d="M744.727 773.818h-651.636c-51.413 0-93.091-41.678-93.091-93.091v0-418.909h93.091c0-77.119 62.517-139.636 139.636-139.636s139.636 62.517 139.636 139.636v0h256c0-77.119 62.517-139.636 139.636-139.636s139.636 62.517 139.636 139.636v0h116.364v232.727zM93.091 494.545v186.182h186.182v-186.182zM232.727 192c-38.56 0-69.818 31.259-69.818 69.818s31.259 69.818 69.818 69.818c38.56 0 69.818-31.259 69.818-69.818v0c0-38.56-31.259-69.818-69.818-69.818v0zM558.545 494.545h-186.182v186.182h186.182zM768 192c-38.56 0-69.818 31.259-69.818 69.818s31.259 69.818 69.818 69.818c38.56 0 69.818-31.259 69.818-69.818v0c0-38.56-31.259-69.818-69.818-69.818v0zM651.636 494.545v186.182h46.545l186.182-186.182z" />
</font>
</defs>
</svg>
